G04 #@! TF.FileFunction,Copper,L1,Top,Signal*
%FSLAX46Y46*%
G04 Gerber Fmt 4.6, Leading zero omitted, Abs format (unit mm)*
G04 Created by KiCad (PCBNEW 4.0.7) date Tue Mar 13 06:06:55 2018*
%MOMM*%
%LPD*%
G01*
G04 APERTURE LIST*
%ADD10C,0.100000*%
%ADD11C,0.010000*%
%ADD12R,1.800000X1.800000*%
%ADD13C,1.800000*%
%ADD14C,1.400000*%
%ADD15O,1.400000X1.400000*%
%ADD16C,2.000000*%
%ADD17C,2.290000*%
%ADD18C,0.508000*%
G04 APERTURE END LIST*
D10*
D11*
G36*
X12375338Y25941681D02*
X12834188Y25643404D01*
X12868333Y25506389D01*
X12578660Y25062890D01*
X12233333Y24977222D01*
X11518069Y24817176D01*
X11062533Y24269012D01*
X10821981Y23230696D01*
X10751666Y21600192D01*
X10751666Y21598474D01*
X10697737Y20066909D01*
X10521191Y19111176D01*
X10213600Y18619836D01*
X9859474Y18210521D01*
X10034761Y17785268D01*
X10213600Y17578723D01*
X10522626Y16964674D01*
X10695776Y15890947D01*
X10751609Y14240035D01*
X10751666Y14172083D01*
X10808628Y12475794D01*
X11007951Y11372641D01*
X11392295Y10757282D01*
X12004319Y10524379D01*
X12233333Y10513333D01*
X12765531Y10271939D01*
X12868333Y9984167D01*
X12574450Y9607491D01*
X11858022Y9465181D01*
X10966877Y9571590D01*
X10310694Y9836035D01*
X10004894Y10127768D01*
X9817606Y10665436D01*
X9722594Y11595900D01*
X9693619Y13066022D01*
X9693333Y13291591D01*
X9676818Y14808888D01*
X9600376Y15799835D01*
X9423661Y16443364D01*
X9106329Y16918410D01*
X8807659Y17219615D01*
X7921985Y18051663D01*
X8807659Y18976107D01*
X9271741Y19541349D01*
X9539209Y20167037D01*
X9662303Y21063660D01*
X9693264Y22441710D01*
X9693333Y22544720D01*
X9750949Y24040351D01*
X9909632Y25122889D01*
X10116666Y25612222D01*
X10748137Y25936415D01*
X11590508Y26042793D01*
X12375338Y25941681D01*
X12375338Y25941681D01*
G37*
X12375338Y25941681D02*
X12834188Y25643404D01*
X12868333Y25506389D01*
X12578660Y25062890D01*
X12233333Y24977222D01*
X11518069Y24817176D01*
X11062533Y24269012D01*
X10821981Y23230696D01*
X10751666Y21600192D01*
X10751666Y21598474D01*
X10697737Y20066909D01*
X10521191Y19111176D01*
X10213600Y18619836D01*
X9859474Y18210521D01*
X10034761Y17785268D01*
X10213600Y17578723D01*
X10522626Y16964674D01*
X10695776Y15890947D01*
X10751609Y14240035D01*
X10751666Y14172083D01*
X10808628Y12475794D01*
X11007951Y11372641D01*
X11392295Y10757282D01*
X12004319Y10524379D01*
X12233333Y10513333D01*
X12765531Y10271939D01*
X12868333Y9984167D01*
X12574450Y9607491D01*
X11858022Y9465181D01*
X10966877Y9571590D01*
X10310694Y9836035D01*
X10004894Y10127768D01*
X9817606Y10665436D01*
X9722594Y11595900D01*
X9693619Y13066022D01*
X9693333Y13291591D01*
X9676818Y14808888D01*
X9600376Y15799835D01*
X9423661Y16443364D01*
X9106329Y16918410D01*
X8807659Y17219615D01*
X7921985Y18051663D01*
X8807659Y18976107D01*
X9271741Y19541349D01*
X9539209Y20167037D01*
X9662303Y21063660D01*
X9693264Y22441710D01*
X9693333Y22544720D01*
X9750949Y24040351D01*
X9909632Y25122889D01*
X10116666Y25612222D01*
X10748137Y25936415D01*
X11590508Y26042793D01*
X12375338Y25941681D01*
G36*
X26934886Y11755605D02*
X26762347Y10811589D01*
X26371026Y9869065D01*
X25976458Y9539200D01*
X25676531Y9833486D01*
X25568333Y10671396D01*
X25724658Y11713530D01*
X26112714Y12155487D01*
X26731416Y12220317D01*
X26934886Y11755605D01*
X26934886Y11755605D01*
G37*
X26934886Y11755605D02*
X26762347Y10811589D01*
X26371026Y9869065D01*
X25976458Y9539200D01*
X25676531Y9833486D01*
X25568333Y10671396D01*
X25724658Y11713530D01*
X26112714Y12155487D01*
X26731416Y12220317D01*
X26934886Y11755605D01*
G36*
X49267424Y12212930D02*
X49342636Y11895222D01*
X49125063Y11136855D01*
X49069157Y10974162D01*
X48635528Y10020926D01*
X48216767Y9564617D01*
X47905406Y9655675D01*
X47793333Y10278694D01*
X47959395Y11542254D01*
X48458692Y12186115D01*
X48870943Y12277222D01*
X49267424Y12212930D01*
X49267424Y12212930D01*
G37*
X49267424Y12212930D02*
X49342636Y11895222D01*
X49125063Y11136855D01*
X49069157Y10974162D01*
X48635528Y10020926D01*
X48216767Y9564617D01*
X47905406Y9655675D01*
X47793333Y10278694D01*
X47959395Y11542254D01*
X48458692Y12186115D01*
X48870943Y12277222D01*
X49267424Y12212930D01*
G36*
X70326552Y11755605D02*
X70154014Y10811589D01*
X69762693Y9869065D01*
X69368125Y9539200D01*
X69068198Y9833486D01*
X68960000Y10671396D01*
X69116325Y11713530D01*
X69504381Y12155487D01*
X70123083Y12220317D01*
X70326552Y11755605D01*
X70326552Y11755605D01*
G37*
X70326552Y11755605D02*
X70154014Y10811589D01*
X69762693Y9869065D01*
X69368125Y9539200D01*
X69068198Y9833486D01*
X68960000Y10671396D01*
X69116325Y11713530D01*
X69504381Y12155487D01*
X70123083Y12220317D01*
X70326552Y11755605D01*
G36*
X88841341Y25922246D02*
X89524309Y25509879D01*
X89922015Y24689802D01*
X90099155Y23353360D01*
X90126666Y22142214D01*
X90148753Y20711257D01*
X90239311Y19821765D01*
X90434792Y19310376D01*
X90771645Y19013727D01*
X90832222Y18980000D01*
X91393004Y18497391D01*
X91537778Y18140320D01*
X91296392Y17574591D01*
X90832222Y17039722D01*
X90471663Y16606278D01*
X90257174Y15995373D01*
X90153820Y15032348D01*
X90126672Y13542542D01*
X90126666Y13511945D01*
X90096709Y11985674D01*
X89986275Y10997182D01*
X89764525Y10380440D01*
X89481527Y10038843D01*
X88759714Y9640064D01*
X87880942Y9464488D01*
X87090670Y9518766D01*
X86634356Y9809550D01*
X86598889Y9960734D01*
X86909703Y10374740D01*
X87569028Y10578096D01*
X88036951Y10658886D01*
X88333220Y10865385D01*
X88509781Y11340910D01*
X88618581Y12228779D01*
X88711566Y13672308D01*
X88715555Y13741290D01*
X88863780Y15478403D01*
X89087753Y16640474D01*
X89414956Y17356363D01*
X89512161Y17476390D01*
X89922614Y18015616D01*
X89821547Y18411624D01*
X89438051Y18788280D01*
X89055798Y19283583D01*
X88818950Y20037654D01*
X88685391Y21226034D01*
X88641445Y22108735D01*
X88578644Y23470130D01*
X88479377Y24279879D01*
X88284908Y24691539D01*
X87936501Y24858671D01*
X87569028Y24912460D01*
X86775898Y25162653D01*
X86584228Y25545954D01*
X86957957Y25893184D01*
X87808412Y26035556D01*
X88841341Y25922246D01*
X88841341Y25922246D01*
G37*
X88841341Y25922246D02*
X89524309Y25509879D01*
X89922015Y24689802D01*
X90099155Y23353360D01*
X90126666Y22142214D01*
X90148753Y20711257D01*
X90239311Y19821765D01*
X90434792Y19310376D01*
X90771645Y19013727D01*
X90832222Y18980000D01*
X91393004Y18497391D01*
X91537778Y18140320D01*
X91296392Y17574591D01*
X90832222Y17039722D01*
X90471663Y16606278D01*
X90257174Y15995373D01*
X90153820Y15032348D01*
X90126672Y13542542D01*
X90126666Y13511945D01*
X90096709Y11985674D01*
X89986275Y10997182D01*
X89764525Y10380440D01*
X89481527Y10038843D01*
X88759714Y9640064D01*
X87880942Y9464488D01*
X87090670Y9518766D01*
X86634356Y9809550D01*
X86598889Y9960734D01*
X86909703Y10374740D01*
X87569028Y10578096D01*
X88036951Y10658886D01*
X88333220Y10865385D01*
X88509781Y11340910D01*
X88618581Y12228779D01*
X88711566Y13672308D01*
X88715555Y13741290D01*
X88863780Y15478403D01*
X89087753Y16640474D01*
X89414956Y17356363D01*
X89512161Y17476390D01*
X89922614Y18015616D01*
X89821547Y18411624D01*
X89438051Y18788280D01*
X89055798Y19283583D01*
X88818950Y20037654D01*
X88685391Y21226034D01*
X88641445Y22108735D01*
X88578644Y23470130D01*
X88479377Y24279879D01*
X88284908Y24691539D01*
X87936501Y24858671D01*
X87569028Y24912460D01*
X86775898Y25162653D01*
X86584228Y25545954D01*
X86957957Y25893184D01*
X87808412Y26035556D01*
X88841341Y25922246D01*
G36*
X37927601Y16376251D02*
X36686856Y15105613D01*
X35961161Y14224720D01*
X35514398Y13417115D01*
X35446111Y13110774D01*
X35146863Y12177119D01*
X34395008Y11534966D01*
X33409374Y11259074D01*
X32408794Y11424200D01*
X31796620Y11864028D01*
X31295417Y12843002D01*
X31304466Y13197894D01*
X31821810Y13197894D01*
X32133609Y12585996D01*
X32359996Y12345127D01*
X33213125Y11878264D01*
X34053522Y12082636D01*
X34577731Y12651947D01*
X34675513Y13253257D01*
X34590657Y13884773D01*
X34132668Y14565011D01*
X33380141Y14795428D01*
X32584396Y14573245D01*
X32004694Y13913383D01*
X31821810Y13197894D01*
X31304466Y13197894D01*
X31322138Y13890961D01*
X31795697Y14800556D01*
X32635007Y15364435D01*
X33199824Y15452222D01*
X33846870Y15693724D01*
X34689836Y16305679D01*
X35091548Y16685103D01*
X36286503Y17917983D01*
X37927601Y16376251D01*
X37927601Y16376251D01*
G37*
X37927601Y16376251D02*
X36686856Y15105613D01*
X35961161Y14224720D01*
X35514398Y13417115D01*
X35446111Y13110774D01*
X35146863Y12177119D01*
X34395008Y11534966D01*
X33409374Y11259074D01*
X32408794Y11424200D01*
X31796620Y11864028D01*
X31295417Y12843002D01*
X31304466Y13197894D01*
X31821810Y13197894D01*
X32133609Y12585996D01*
X32359996Y12345127D01*
X33213125Y11878264D01*
X34053522Y12082636D01*
X34577731Y12651947D01*
X34675513Y13253257D01*
X34590657Y13884773D01*
X34132668Y14565011D01*
X33380141Y14795428D01*
X32584396Y14573245D01*
X32004694Y13913383D01*
X31821810Y13197894D01*
X31304466Y13197894D01*
X31322138Y13890961D01*
X31795697Y14800556D01*
X32635007Y15364435D01*
X33199824Y15452222D01*
X33846870Y15693724D01*
X34689836Y16305679D01*
X35091548Y16685103D01*
X36286503Y17917983D01*
X37927601Y16376251D01*
G36*
X58992773Y12896391D02*
X59281032Y12300855D01*
X59233830Y11810688D01*
X58754527Y11337973D01*
X58054576Y11237779D01*
X57501695Y11560643D01*
X57494722Y11571667D01*
X57037161Y11787237D01*
X56144497Y11912022D01*
X55730833Y11924445D01*
X54740467Y11850429D01*
X54078640Y11664316D01*
X53966944Y11571667D01*
X53430695Y11235325D01*
X52802641Y11388578D01*
X52496521Y11775411D01*
X52500599Y11944131D01*
X52887615Y11944131D01*
X52976998Y11797261D01*
X53489096Y11582658D01*
X53780316Y11960246D01*
X53790555Y12100833D01*
X58023889Y12100833D01*
X58214379Y11631368D01*
X58376666Y11571667D01*
X58689644Y11857402D01*
X58729444Y12100833D01*
X58538954Y12570299D01*
X58376666Y12630000D01*
X58063689Y12344265D01*
X58023889Y12100833D01*
X53790555Y12100833D01*
X53611111Y12570463D01*
X53458597Y12630000D01*
X52997934Y12396582D01*
X52887615Y11944131D01*
X52500599Y11944131D01*
X52512231Y12425324D01*
X52902294Y12972653D01*
X53451511Y13215092D01*
X53858591Y13055853D01*
X54450425Y12797879D01*
X55443117Y12646572D01*
X55907222Y12630000D01*
X56977883Y12717612D01*
X57775259Y12938411D01*
X57955853Y13055853D01*
X58482198Y13215138D01*
X58992773Y12896391D01*
X58992773Y12896391D01*
G37*
X58992773Y12896391D02*
X59281032Y12300855D01*
X59233830Y11810688D01*
X58754527Y11337973D01*
X58054576Y11237779D01*
X57501695Y11560643D01*
X57494722Y11571667D01*
X57037161Y11787237D01*
X56144497Y11912022D01*
X55730833Y11924445D01*
X54740467Y11850429D01*
X54078640Y11664316D01*
X53966944Y11571667D01*
X53430695Y11235325D01*
X52802641Y11388578D01*
X52496521Y11775411D01*
X52500599Y11944131D01*
X52887615Y11944131D01*
X52976998Y11797261D01*
X53489096Y11582658D01*
X53780316Y11960246D01*
X53790555Y12100833D01*
X58023889Y12100833D01*
X58214379Y11631368D01*
X58376666Y11571667D01*
X58689644Y11857402D01*
X58729444Y12100833D01*
X58538954Y12570299D01*
X58376666Y12630000D01*
X58063689Y12344265D01*
X58023889Y12100833D01*
X53790555Y12100833D01*
X53611111Y12570463D01*
X53458597Y12630000D01*
X52997934Y12396582D01*
X52887615Y11944131D01*
X52500599Y11944131D01*
X52512231Y12425324D01*
X52902294Y12972653D01*
X53451511Y13215092D01*
X53858591Y13055853D01*
X54450425Y12797879D01*
X55443117Y12646572D01*
X55907222Y12630000D01*
X56977883Y12717612D01*
X57775259Y12938411D01*
X57955853Y13055853D01*
X58482198Y13215138D01*
X58992773Y12896391D01*
G36*
X61551023Y25058594D02*
X61593611Y25032898D01*
X62322994Y24792121D01*
X63430368Y24645396D01*
X64024464Y24624444D01*
X65801280Y24624444D01*
X65704945Y18362639D01*
X65608611Y12100833D01*
X63668333Y11992431D01*
X62530206Y11875269D01*
X61678782Y11690002D01*
X61392916Y11551458D01*
X60711663Y11232264D01*
X60095157Y11465200D01*
X59913627Y11752548D01*
X59915533Y12488393D01*
X60372097Y12988838D01*
X61058268Y13042048D01*
X61212740Y12975365D01*
X61977423Y12751119D01*
X63049714Y12634627D01*
X63292363Y12630000D01*
X64726666Y12630000D01*
X64726666Y24271667D01*
X63487157Y24271667D01*
X62444695Y24157025D01*
X61620669Y23879499D01*
X61593611Y23863213D01*
X60786167Y23626326D01*
X60098530Y23835863D01*
X59788727Y24408259D01*
X59787777Y24448056D01*
X60069702Y25037749D01*
X60743459Y25269117D01*
X61551023Y25058594D01*
X61551023Y25058594D01*
G37*
X61551023Y25058594D02*
X61593611Y25032898D01*
X62322994Y24792121D01*
X63430368Y24645396D01*
X64024464Y24624444D01*
X65801280Y24624444D01*
X65704945Y18362639D01*
X65608611Y12100833D01*
X63668333Y11992431D01*
X62530206Y11875269D01*
X61678782Y11690002D01*
X61392916Y11551458D01*
X60711663Y11232264D01*
X60095157Y11465200D01*
X59913627Y11752548D01*
X59915533Y12488393D01*
X60372097Y12988838D01*
X61058268Y13042048D01*
X61212740Y12975365D01*
X61977423Y12751119D01*
X63049714Y12634627D01*
X63292363Y12630000D01*
X64726666Y12630000D01*
X64726666Y24271667D01*
X63487157Y24271667D01*
X62444695Y24157025D01*
X61620669Y23879499D01*
X61593611Y23863213D01*
X60786167Y23626326D01*
X60098530Y23835863D01*
X59788727Y24408259D01*
X59787777Y24448056D01*
X60069702Y25037749D01*
X60743459Y25269117D01*
X61551023Y25058594D01*
G36*
X40044839Y17384846D02*
X41792932Y15604352D01*
X43041396Y14229758D01*
X43824693Y13205922D01*
X44177281Y12477706D01*
X44133621Y11989967D01*
X43728174Y11687566D01*
X43628003Y11651365D01*
X43238895Y11838606D01*
X42445607Y12452212D01*
X41337873Y13414705D01*
X40005427Y14648607D01*
X38773148Y15843106D01*
X34379456Y20186802D01*
X35803179Y21610525D01*
X40044839Y17384846D01*
X40044839Y17384846D01*
G37*
X40044839Y17384846D02*
X41792932Y15604352D01*
X43041396Y14229758D01*
X43824693Y13205922D01*
X44177281Y12477706D01*
X44133621Y11989967D01*
X43728174Y11687566D01*
X43628003Y11651365D01*
X43238895Y11838606D01*
X42445607Y12452212D01*
X41337873Y13414705D01*
X40005427Y14648607D01*
X38773148Y15843106D01*
X34379456Y20186802D01*
X35803179Y21610525D01*
X40044839Y17384846D01*
G36*
X83360938Y21912174D02*
X84729898Y20437708D01*
X85662823Y19394585D01*
X86212749Y18705602D01*
X86432711Y18293558D01*
X86375745Y18081250D01*
X86094887Y17991475D01*
X86057810Y17986429D01*
X85644512Y17902868D01*
X85388500Y17687522D01*
X85252136Y17199215D01*
X85197779Y16296773D01*
X85187788Y14839020D01*
X85187778Y14723234D01*
X85187778Y11571667D01*
X74251666Y11571667D01*
X74251666Y15363055D01*
X76461575Y15363055D01*
X76653726Y15025718D01*
X76866972Y14506333D01*
X76669521Y14155338D01*
X76494801Y13775750D01*
X76854304Y13688333D01*
X77348715Y13406161D01*
X77426666Y13121423D01*
X77643577Y12720862D01*
X77955833Y12757574D01*
X78410090Y12764907D01*
X78485000Y12618928D01*
X78711730Y12301492D01*
X79157559Y12400741D01*
X79357422Y12614593D01*
X79816348Y12806779D01*
X80083797Y12753238D01*
X80526825Y12822298D01*
X80601666Y13121423D01*
X80751519Y13615043D01*
X80895648Y13688333D01*
X81103303Y13994771D01*
X81189629Y14731148D01*
X81106217Y15405491D01*
X80904616Y15597334D01*
X80895648Y15592273D01*
X80642734Y15706447D01*
X80601666Y15960569D01*
X80306735Y16414323D01*
X79896111Y16510556D01*
X79323163Y16676142D01*
X79190555Y16906529D01*
X79030415Y17101844D01*
X78676842Y16876159D01*
X78077244Y16622577D01*
X77794898Y16677394D01*
X77473950Y16613851D01*
X77426666Y16392730D01*
X77139462Y15842900D01*
X76838509Y15654789D01*
X76461575Y15363055D01*
X74251666Y15363055D01*
X74251666Y17921667D01*
X72355774Y17921667D01*
X73303720Y18911109D01*
X73846413Y19577745D01*
X73967110Y19879851D01*
X76180192Y19879851D01*
X76474791Y19009380D01*
X76842936Y18496540D01*
X77086478Y18458614D01*
X77501588Y18384841D01*
X77622776Y18242535D01*
X77938556Y18070326D01*
X78170917Y18324975D01*
X78274306Y18432091D01*
X79720512Y18432091D01*
X79884727Y17544286D01*
X80227735Y16961171D01*
X80466403Y16863333D01*
X80909296Y16692490D01*
X80954444Y16569352D01*
X81260882Y16361696D01*
X81997259Y16275370D01*
X82671602Y16358783D01*
X82863444Y16560384D01*
X82858384Y16569352D01*
X82999930Y16799556D01*
X83423889Y16863333D01*
X83930400Y16999243D01*
X83943505Y17231565D01*
X83942823Y17780889D01*
X84116204Y18082102D01*
X84311903Y18606284D01*
X84161982Y18783502D01*
X83954680Y19251828D01*
X84006206Y19520464D01*
X83937146Y19963492D01*
X83638021Y20038333D01*
X83144401Y20188186D01*
X83071111Y20332315D01*
X82764321Y20538795D01*
X82025223Y20626276D01*
X82012778Y20626296D01*
X81269447Y20541077D01*
X80954517Y20335772D01*
X80954444Y20332315D01*
X80670827Y20065527D01*
X80466422Y20038333D01*
X79986009Y19743975D01*
X79803075Y19367888D01*
X79720512Y18432091D01*
X78274306Y18432091D01*
X78430767Y18594191D01*
X78479598Y18513829D01*
X78677117Y18475382D01*
X78938714Y18690218D01*
X79290826Y19299806D01*
X79441450Y20029206D01*
X79361794Y20595664D01*
X79147811Y20743889D01*
X78973843Y20968424D01*
X79051218Y21156617D01*
X79068314Y21421536D01*
X78719260Y21344078D01*
X78229925Y21327266D01*
X78132222Y21503712D01*
X77940049Y21666795D01*
X77603055Y21449444D01*
X77177165Y21213165D01*
X77073889Y21297286D01*
X76905748Y21283719D01*
X76586253Y20917416D01*
X76233049Y20247460D01*
X76180192Y19879851D01*
X73967110Y19879851D01*
X74133237Y20295666D01*
X74240952Y21321961D01*
X74251666Y22086109D01*
X74251666Y24271667D01*
X75662778Y24271667D01*
X76609145Y24199957D01*
X77019201Y23939753D01*
X77073889Y23670905D01*
X77212654Y23447842D01*
X77672097Y23705870D01*
X78433961Y24398217D01*
X79794033Y25726292D01*
X83360938Y21912174D01*
X83360938Y21912174D01*
G37*
X83360938Y21912174D02*
X84729898Y20437708D01*
X85662823Y19394585D01*
X86212749Y18705602D01*
X86432711Y18293558D01*
X86375745Y18081250D01*
X86094887Y17991475D01*
X86057810Y17986429D01*
X85644512Y17902868D01*
X85388500Y17687522D01*
X85252136Y17199215D01*
X85197779Y16296773D01*
X85187788Y14839020D01*
X85187778Y14723234D01*
X85187778Y11571667D01*
X74251666Y11571667D01*
X74251666Y15363055D01*
X76461575Y15363055D01*
X76653726Y15025718D01*
X76866972Y14506333D01*
X76669521Y14155338D01*
X76494801Y13775750D01*
X76854304Y13688333D01*
X77348715Y13406161D01*
X77426666Y13121423D01*
X77643577Y12720862D01*
X77955833Y12757574D01*
X78410090Y12764907D01*
X78485000Y12618928D01*
X78711730Y12301492D01*
X79157559Y12400741D01*
X79357422Y12614593D01*
X79816348Y12806779D01*
X80083797Y12753238D01*
X80526825Y12822298D01*
X80601666Y13121423D01*
X80751519Y13615043D01*
X80895648Y13688333D01*
X81103303Y13994771D01*
X81189629Y14731148D01*
X81106217Y15405491D01*
X80904616Y15597334D01*
X80895648Y15592273D01*
X80642734Y15706447D01*
X80601666Y15960569D01*
X80306735Y16414323D01*
X79896111Y16510556D01*
X79323163Y16676142D01*
X79190555Y16906529D01*
X79030415Y17101844D01*
X78676842Y16876159D01*
X78077244Y16622577D01*
X77794898Y16677394D01*
X77473950Y16613851D01*
X77426666Y16392730D01*
X77139462Y15842900D01*
X76838509Y15654789D01*
X76461575Y15363055D01*
X74251666Y15363055D01*
X74251666Y17921667D01*
X72355774Y17921667D01*
X73303720Y18911109D01*
X73846413Y19577745D01*
X73967110Y19879851D01*
X76180192Y19879851D01*
X76474791Y19009380D01*
X76842936Y18496540D01*
X77086478Y18458614D01*
X77501588Y18384841D01*
X77622776Y18242535D01*
X77938556Y18070326D01*
X78170917Y18324975D01*
X78274306Y18432091D01*
X79720512Y18432091D01*
X79884727Y17544286D01*
X80227735Y16961171D01*
X80466403Y16863333D01*
X80909296Y16692490D01*
X80954444Y16569352D01*
X81260882Y16361696D01*
X81997259Y16275370D01*
X82671602Y16358783D01*
X82863444Y16560384D01*
X82858384Y16569352D01*
X82999930Y16799556D01*
X83423889Y16863333D01*
X83930400Y16999243D01*
X83943505Y17231565D01*
X83942823Y17780889D01*
X84116204Y18082102D01*
X84311903Y18606284D01*
X84161982Y18783502D01*
X83954680Y19251828D01*
X84006206Y19520464D01*
X83937146Y19963492D01*
X83638021Y20038333D01*
X83144401Y20188186D01*
X83071111Y20332315D01*
X82764321Y20538795D01*
X82025223Y20626276D01*
X82012778Y20626296D01*
X81269447Y20541077D01*
X80954517Y20335772D01*
X80954444Y20332315D01*
X80670827Y20065527D01*
X80466422Y20038333D01*
X79986009Y19743975D01*
X79803075Y19367888D01*
X79720512Y18432091D01*
X78274306Y18432091D01*
X78430767Y18594191D01*
X78479598Y18513829D01*
X78677117Y18475382D01*
X78938714Y18690218D01*
X79290826Y19299806D01*
X79441450Y20029206D01*
X79361794Y20595664D01*
X79147811Y20743889D01*
X78973843Y20968424D01*
X79051218Y21156617D01*
X79068314Y21421536D01*
X78719260Y21344078D01*
X78229925Y21327266D01*
X78132222Y21503712D01*
X77940049Y21666795D01*
X77603055Y21449444D01*
X77177165Y21213165D01*
X77073889Y21297286D01*
X76905748Y21283719D01*
X76586253Y20917416D01*
X76233049Y20247460D01*
X76180192Y19879851D01*
X73967110Y19879851D01*
X74133237Y20295666D01*
X74240952Y21321961D01*
X74251666Y22086109D01*
X74251666Y24271667D01*
X75662778Y24271667D01*
X76609145Y24199957D01*
X77019201Y23939753D01*
X77073889Y23670905D01*
X77212654Y23447842D01*
X77672097Y23705870D01*
X78433961Y24398217D01*
X79794033Y25726292D01*
X83360938Y21912174D01*
G36*
X59238935Y25009058D02*
X59300490Y24433615D01*
X59222012Y24127113D01*
X58744946Y23674572D01*
X58043204Y23589076D01*
X57496284Y23916375D01*
X57494722Y23918889D01*
X57042625Y24123577D01*
X56134707Y24250871D01*
X55533624Y24271667D01*
X53790555Y24271667D01*
X53790555Y20588320D01*
X53830025Y18762592D01*
X53932973Y17500084D01*
X54076213Y16825373D01*
X54236556Y16763037D01*
X54390814Y17337655D01*
X54515797Y18573803D01*
X54570901Y19761214D01*
X54672500Y23036944D01*
X58200277Y23140331D01*
X59833342Y23192359D01*
X61309964Y23246826D01*
X62414925Y23295453D01*
X62786389Y23316720D01*
X63550254Y23273384D01*
X63827346Y22919572D01*
X63844722Y22684167D01*
X63808083Y22390210D01*
X63620929Y22196817D01*
X63167400Y22088431D01*
X62331637Y22049498D01*
X60997783Y22064461D01*
X59523194Y22103943D01*
X55201666Y22229274D01*
X55201666Y18734915D01*
X55242806Y16981966D01*
X55358658Y15679055D01*
X55537874Y14936765D01*
X55601287Y14840935D01*
X55841244Y14199992D01*
X55788748Y13888435D01*
X55313349Y13432439D01*
X54625893Y13377861D01*
X54081183Y13731724D01*
X54020095Y13853425D01*
X54023856Y14421084D01*
X54158740Y14579800D01*
X54461918Y15077487D01*
X54496111Y15339849D01*
X54407259Y15698047D01*
X54029608Y15503089D01*
X53949239Y15437528D01*
X53431222Y15179851D01*
X52915167Y15474000D01*
X52809607Y15576424D01*
X52417818Y16155214D01*
X52451126Y16272396D01*
X52881757Y16272396D01*
X53164087Y15889214D01*
X53458597Y15805000D01*
X53784185Y16041694D01*
X53790555Y16098982D01*
X53560426Y16610232D01*
X53082719Y16681227D01*
X53030040Y16652977D01*
X52881757Y16272396D01*
X52451126Y16272396D01*
X52591436Y16766011D01*
X52650924Y16864249D01*
X52871780Y17602255D01*
X53019871Y18928681D01*
X53083440Y20729038D01*
X53085000Y21091880D01*
X53085000Y24291353D01*
X57826504Y24291353D01*
X57915887Y24144483D01*
X58427985Y23929880D01*
X58719205Y24307469D01*
X58729444Y24448056D01*
X58550000Y24917685D01*
X58397486Y24977222D01*
X57936822Y24743804D01*
X57826504Y24291353D01*
X53085000Y24291353D01*
X53085000Y24624444D01*
X55180847Y24624444D01*
X56336308Y24679562D01*
X57185142Y24822417D01*
X57494722Y24977222D01*
X58014006Y25278376D01*
X58739184Y25288300D01*
X59238935Y25009058D01*
X59238935Y25009058D01*
G37*
X59238935Y25009058D02*
X59300490Y24433615D01*
X59222012Y24127113D01*
X58744946Y23674572D01*
X58043204Y23589076D01*
X57496284Y23916375D01*
X57494722Y23918889D01*
X57042625Y24123577D01*
X56134707Y24250871D01*
X55533624Y24271667D01*
X53790555Y24271667D01*
X53790555Y20588320D01*
X53830025Y18762592D01*
X53932973Y17500084D01*
X54076213Y16825373D01*
X54236556Y16763037D01*
X54390814Y17337655D01*
X54515797Y18573803D01*
X54570901Y19761214D01*
X54672500Y23036944D01*
X58200277Y23140331D01*
X59833342Y23192359D01*
X61309964Y23246826D01*
X62414925Y23295453D01*
X62786389Y23316720D01*
X63550254Y23273384D01*
X63827346Y22919572D01*
X63844722Y22684167D01*
X63808083Y22390210D01*
X63620929Y22196817D01*
X63167400Y22088431D01*
X62331637Y22049498D01*
X60997783Y22064461D01*
X59523194Y22103943D01*
X55201666Y22229274D01*
X55201666Y18734915D01*
X55242806Y16981966D01*
X55358658Y15679055D01*
X55537874Y14936765D01*
X55601287Y14840935D01*
X55841244Y14199992D01*
X55788748Y13888435D01*
X55313349Y13432439D01*
X54625893Y13377861D01*
X54081183Y13731724D01*
X54020095Y13853425D01*
X54023856Y14421084D01*
X54158740Y14579800D01*
X54461918Y15077487D01*
X54496111Y15339849D01*
X54407259Y15698047D01*
X54029608Y15503089D01*
X53949239Y15437528D01*
X53431222Y15179851D01*
X52915167Y15474000D01*
X52809607Y15576424D01*
X52417818Y16155214D01*
X52451126Y16272396D01*
X52881757Y16272396D01*
X53164087Y15889214D01*
X53458597Y15805000D01*
X53784185Y16041694D01*
X53790555Y16098982D01*
X53560426Y16610232D01*
X53082719Y16681227D01*
X53030040Y16652977D01*
X52881757Y16272396D01*
X52451126Y16272396D01*
X52591436Y16766011D01*
X52650924Y16864249D01*
X52871780Y17602255D01*
X53019871Y18928681D01*
X53083440Y20729038D01*
X53085000Y21091880D01*
X53085000Y24291353D01*
X57826504Y24291353D01*
X57915887Y24144483D01*
X58427985Y23929880D01*
X58719205Y24307469D01*
X58729444Y24448056D01*
X58550000Y24917685D01*
X58397486Y24977222D01*
X57936822Y24743804D01*
X57826504Y24291353D01*
X53085000Y24291353D01*
X53085000Y24624444D01*
X55180847Y24624444D01*
X56336308Y24679562D01*
X57185142Y24822417D01*
X57494722Y24977222D01*
X58014006Y25278376D01*
X58739184Y25288300D01*
X59238935Y25009058D01*
G36*
X57610814Y18008638D02*
X57832014Y17369605D01*
X57643874Y16831342D01*
X57403066Y16113610D01*
X57323735Y15364028D01*
X57351351Y14843315D01*
X57547664Y14553102D01*
X58071869Y14426020D01*
X59083165Y14394697D01*
X59616175Y14393889D01*
X60924495Y14458494D01*
X62025678Y14626607D01*
X62605981Y14826027D01*
X63271555Y15076290D01*
X63706371Y14849740D01*
X63959794Y14223604D01*
X63718086Y13640072D01*
X63116908Y13402834D01*
X63062044Y13407362D01*
X62427016Y13454896D01*
X61301942Y13517028D01*
X59901844Y13582175D01*
X59523194Y13598018D01*
X56612778Y13716868D01*
X56612778Y14217500D01*
X62610000Y14217500D01*
X62788999Y13778443D01*
X62989236Y13755949D01*
X63353712Y14120150D01*
X63368472Y14217500D01*
X63093827Y14631144D01*
X62989236Y14679051D01*
X62667559Y14508758D01*
X62610000Y14217500D01*
X56612778Y14217500D01*
X56612778Y15043156D01*
X56512667Y16018923D01*
X56266418Y16703986D01*
X56213157Y16769065D01*
X56030938Y17235797D01*
X56415393Y17235797D01*
X56504776Y17088928D01*
X57016873Y16874324D01*
X57308094Y17251913D01*
X57318333Y17392500D01*
X57138889Y17862129D01*
X56986375Y17921667D01*
X56525711Y17688249D01*
X56415393Y17235797D01*
X56030938Y17235797D01*
X55966043Y17402015D01*
X56239936Y18000807D01*
X56898760Y18274291D01*
X56916740Y18274444D01*
X57610814Y18008638D01*
X57610814Y18008638D01*
G37*
X57610814Y18008638D02*
X57832014Y17369605D01*
X57643874Y16831342D01*
X57403066Y16113610D01*
X57323735Y15364028D01*
X57351351Y14843315D01*
X57547664Y14553102D01*
X58071869Y14426020D01*
X59083165Y14394697D01*
X59616175Y14393889D01*
X60924495Y14458494D01*
X62025678Y14626607D01*
X62605981Y14826027D01*
X63271555Y15076290D01*
X63706371Y14849740D01*
X63959794Y14223604D01*
X63718086Y13640072D01*
X63116908Y13402834D01*
X63062044Y13407362D01*
X62427016Y13454896D01*
X61301942Y13517028D01*
X59901844Y13582175D01*
X59523194Y13598018D01*
X56612778Y13716868D01*
X56612778Y14217500D01*
X62610000Y14217500D01*
X62788999Y13778443D01*
X62989236Y13755949D01*
X63353712Y14120150D01*
X63368472Y14217500D01*
X63093827Y14631144D01*
X62989236Y14679051D01*
X62667559Y14508758D01*
X62610000Y14217500D01*
X56612778Y14217500D01*
X56612778Y15043156D01*
X56512667Y16018923D01*
X56266418Y16703986D01*
X56213157Y16769065D01*
X56030938Y17235797D01*
X56415393Y17235797D01*
X56504776Y17088928D01*
X57016873Y16874324D01*
X57308094Y17251913D01*
X57318333Y17392500D01*
X57138889Y17862129D01*
X56986375Y17921667D01*
X56525711Y17688249D01*
X56415393Y17235797D01*
X56030938Y17235797D01*
X55966043Y17402015D01*
X56239936Y18000807D01*
X56898760Y18274291D01*
X56916740Y18274444D01*
X57610814Y18008638D01*
G36*
X19967135Y23809157D02*
X21317014Y23263062D01*
X21648715Y23015679D01*
X22597380Y21915332D01*
X22970035Y20636237D01*
X22778343Y19079732D01*
X22278462Y17687692D01*
X21767968Y16427405D01*
X21359496Y15283282D01*
X21179889Y14658472D01*
X20863075Y13954826D01*
X20446334Y13688333D01*
X20130426Y13998782D01*
X19958925Y14790815D01*
X19931527Y15855458D01*
X20047923Y16983742D01*
X20307809Y17966693D01*
X20453055Y18274444D01*
X20821457Y18967609D01*
X20968678Y19332778D01*
X20656206Y19429366D01*
X19838118Y19493435D01*
X19040830Y19509167D01*
X17980738Y19480175D01*
X17281122Y19405386D01*
X17112814Y19332778D01*
X17310447Y18947024D01*
X17642053Y18471602D01*
X18024958Y18029012D01*
X18151594Y18153505D01*
X18160000Y18383407D01*
X18385768Y18829743D01*
X19145192Y18978855D01*
X19256076Y18980000D01*
X19991138Y18916528D01*
X20169237Y18654048D01*
X20071124Y18362639D01*
X19891803Y17679183D01*
X19728709Y16575774D01*
X19649269Y15716806D01*
X19498027Y14510323D01*
X19286007Y13844137D01*
X19070911Y13756943D01*
X18910441Y14287435D01*
X18860153Y15187639D01*
X18791946Y16232556D01*
X18628351Y17008082D01*
X18565275Y17143248D01*
X18434884Y17086579D01*
X18395591Y16464220D01*
X18437972Y15643943D01*
X18504574Y14522622D01*
X18436768Y13935805D01*
X18192277Y13718480D01*
X17939101Y13696846D01*
X17502843Y13889585D01*
X17074776Y14529102D01*
X16586825Y15725235D01*
X16463269Y16078096D01*
X15880515Y17793032D01*
X15502318Y18989270D01*
X15299428Y19813803D01*
X15242594Y20413623D01*
X15302563Y20935721D01*
X15409246Y21374687D01*
X16058842Y22580496D01*
X17156233Y23420057D01*
X18519602Y23845550D01*
X19967135Y23809157D01*
X19967135Y23809157D01*
G37*
X19967135Y23809157D02*
X21317014Y23263062D01*
X21648715Y23015679D01*
X22597380Y21915332D01*
X22970035Y20636237D01*
X22778343Y19079732D01*
X22278462Y17687692D01*
X21767968Y16427405D01*
X21359496Y15283282D01*
X21179889Y14658472D01*
X20863075Y13954826D01*
X20446334Y13688333D01*
X20130426Y13998782D01*
X19958925Y14790815D01*
X19931527Y15855458D01*
X20047923Y16983742D01*
X20307809Y17966693D01*
X20453055Y18274444D01*
X20821457Y18967609D01*
X20968678Y19332778D01*
X20656206Y19429366D01*
X19838118Y19493435D01*
X19040830Y19509167D01*
X17980738Y19480175D01*
X17281122Y19405386D01*
X17112814Y19332778D01*
X17310447Y18947024D01*
X17642053Y18471602D01*
X18024958Y18029012D01*
X18151594Y18153505D01*
X18160000Y18383407D01*
X18385768Y18829743D01*
X19145192Y18978855D01*
X19256076Y18980000D01*
X19991138Y18916528D01*
X20169237Y18654048D01*
X20071124Y18362639D01*
X19891803Y17679183D01*
X19728709Y16575774D01*
X19649269Y15716806D01*
X19498027Y14510323D01*
X19286007Y13844137D01*
X19070911Y13756943D01*
X18910441Y14287435D01*
X18860153Y15187639D01*
X18791946Y16232556D01*
X18628351Y17008082D01*
X18565275Y17143248D01*
X18434884Y17086579D01*
X18395591Y16464220D01*
X18437972Y15643943D01*
X18504574Y14522622D01*
X18436768Y13935805D01*
X18192277Y13718480D01*
X17939101Y13696846D01*
X17502843Y13889585D01*
X17074776Y14529102D01*
X16586825Y15725235D01*
X16463269Y16078096D01*
X15880515Y17793032D01*
X15502318Y18989270D01*
X15299428Y19813803D01*
X15242594Y20413623D01*
X15302563Y20935721D01*
X15409246Y21374687D01*
X16058842Y22580496D01*
X17156233Y23420057D01*
X18519602Y23845550D01*
X19967135Y23809157D01*
G36*
X62366004Y19584940D02*
X62534687Y19243517D01*
X62388190Y18640797D01*
X61807662Y18346719D01*
X61030619Y18453511D01*
X60804167Y18571547D01*
X59869534Y18978298D01*
X59303335Y18787182D01*
X59085956Y17989589D01*
X59082222Y17815833D01*
X59198882Y16886500D01*
X59480555Y16253683D01*
X59490604Y16243285D01*
X59707659Y15753622D01*
X59447408Y15290785D01*
X58956147Y14840332D01*
X58729444Y14746667D01*
X58309867Y14986504D01*
X58011480Y15290785D01*
X57746563Y15856522D01*
X57968284Y16243285D01*
X58235889Y16843621D01*
X58372240Y17800320D01*
X58376666Y18003294D01*
X58431335Y18854777D01*
X58697254Y19355548D01*
X59327292Y19615370D01*
X60474315Y19744002D01*
X60832920Y19766909D01*
X61854422Y19771151D01*
X62366004Y19584940D01*
X62366004Y19584940D01*
G37*
X62366004Y19584940D02*
X62534687Y19243517D01*
X62388190Y18640797D01*
X61807662Y18346719D01*
X61030619Y18453511D01*
X60804167Y18571547D01*
X59869534Y18978298D01*
X59303335Y18787182D01*
X59085956Y17989589D01*
X59082222Y17815833D01*
X59198882Y16886500D01*
X59480555Y16253683D01*
X59490604Y16243285D01*
X59707659Y15753622D01*
X59447408Y15290785D01*
X58956147Y14840332D01*
X58729444Y14746667D01*
X58309867Y14986504D01*
X58011480Y15290785D01*
X57746563Y15856522D01*
X57968284Y16243285D01*
X58235889Y16843621D01*
X58372240Y17800320D01*
X58376666Y18003294D01*
X58431335Y18854777D01*
X58697254Y19355548D01*
X59327292Y19615370D01*
X60474315Y19744002D01*
X60832920Y19766909D01*
X61854422Y19771151D01*
X62366004Y19584940D01*
G36*
X57545921Y21606286D02*
X57672027Y21530743D01*
X58371834Y21312086D01*
X59547520Y21157519D01*
X60970247Y21096731D01*
X61017713Y21096667D01*
X63668333Y21096667D01*
X63668333Y18627222D01*
X63650275Y17331354D01*
X63566274Y16589111D01*
X63371589Y16248882D01*
X63021477Y16159054D01*
X62939585Y16157778D01*
X62025409Y16009201D01*
X61616669Y15852670D01*
X60893109Y15668084D01*
X60581527Y15705679D01*
X60200871Y16145022D01*
X60197267Y16537014D01*
X60560949Y16537014D01*
X60731242Y16215337D01*
X61022500Y16157778D01*
X61461557Y16336777D01*
X61484051Y16537014D01*
X61119849Y16901490D01*
X61022500Y16916250D01*
X60608856Y16641605D01*
X60560949Y16537014D01*
X60197267Y16537014D01*
X60194702Y16815993D01*
X60540468Y17366985D01*
X60693435Y17450415D01*
X61388722Y17427389D01*
X61645935Y17262954D01*
X62298017Y16835520D01*
X62729359Y17078168D01*
X62939990Y17990930D01*
X62962777Y18627222D01*
X62962777Y20391111D01*
X60646530Y20391111D01*
X59327064Y20333501D01*
X58208448Y20183528D01*
X57606762Y20003895D01*
X56901051Y19814991D01*
X56319637Y20180284D01*
X55951009Y20659136D01*
X55982289Y20743889D01*
X56612778Y20743889D01*
X56898512Y20430912D01*
X57141944Y20391111D01*
X57611410Y20581601D01*
X57671111Y20743889D01*
X57385376Y21056866D01*
X57141944Y21096667D01*
X56672478Y20906177D01*
X56612778Y20743889D01*
X55982289Y20743889D01*
X56104964Y21076273D01*
X56366496Y21354354D01*
X56949237Y21758936D01*
X57545921Y21606286D01*
X57545921Y21606286D01*
G37*
X57545921Y21606286D02*
X57672027Y21530743D01*
X58371834Y21312086D01*
X59547520Y21157519D01*
X60970247Y21096731D01*
X61017713Y21096667D01*
X63668333Y21096667D01*
X63668333Y18627222D01*
X63650275Y17331354D01*
X63566274Y16589111D01*
X63371589Y16248882D01*
X63021477Y16159054D01*
X62939585Y16157778D01*
X62025409Y16009201D01*
X61616669Y15852670D01*
X60893109Y15668084D01*
X60581527Y15705679D01*
X60200871Y16145022D01*
X60197267Y16537014D01*
X60560949Y16537014D01*
X60731242Y16215337D01*
X61022500Y16157778D01*
X61461557Y16336777D01*
X61484051Y16537014D01*
X61119849Y16901490D01*
X61022500Y16916250D01*
X60608856Y16641605D01*
X60560949Y16537014D01*
X60197267Y16537014D01*
X60194702Y16815993D01*
X60540468Y17366985D01*
X60693435Y17450415D01*
X61388722Y17427389D01*
X61645935Y17262954D01*
X62298017Y16835520D01*
X62729359Y17078168D01*
X62939990Y17990930D01*
X62962777Y18627222D01*
X62962777Y20391111D01*
X60646530Y20391111D01*
X59327064Y20333501D01*
X58208448Y20183528D01*
X57606762Y20003895D01*
X56901051Y19814991D01*
X56319637Y20180284D01*
X55951009Y20659136D01*
X55982289Y20743889D01*
X56612778Y20743889D01*
X56898512Y20430912D01*
X57141944Y20391111D01*
X57611410Y20581601D01*
X57671111Y20743889D01*
X57385376Y21056866D01*
X57141944Y21096667D01*
X56672478Y20906177D01*
X56612778Y20743889D01*
X55982289Y20743889D01*
X56104964Y21076273D01*
X56366496Y21354354D01*
X56949237Y21758936D01*
X57545921Y21606286D01*
G36*
X37709965Y24873639D02*
X37915555Y24648217D01*
X37626220Y24282909D01*
X37266484Y24113205D01*
X36646219Y23662812D01*
X36136795Y22942904D01*
X35593485Y22053545D01*
X34889604Y21147303D01*
X34192538Y20415777D01*
X33669669Y20050564D01*
X33599299Y20038333D01*
X33184094Y19795131D01*
X32577320Y19202087D01*
X32511777Y19127083D01*
X31960401Y18536318D01*
X31605704Y18444315D01*
X31192068Y18808323D01*
X31114731Y18893433D01*
X30712869Y19426164D01*
X30815218Y19823589D01*
X31209922Y20212138D01*
X31739739Y20827782D01*
X31918333Y21256136D01*
X32169730Y21736048D01*
X32808701Y22476335D01*
X33662411Y23308707D01*
X34558028Y24064873D01*
X35322720Y24576544D01*
X35334724Y24582735D01*
X36171932Y24867523D01*
X37048006Y24966631D01*
X37709965Y24873639D01*
X37709965Y24873639D01*
G37*
X37709965Y24873639D02*
X37915555Y24648217D01*
X37626220Y24282909D01*
X37266484Y24113205D01*
X36646219Y23662812D01*
X36136795Y22942904D01*
X35593485Y22053545D01*
X34889604Y21147303D01*
X34192538Y20415777D01*
X33669669Y20050564D01*
X33599299Y20038333D01*
X33184094Y19795131D01*
X32577320Y19202087D01*
X32511777Y19127083D01*
X31960401Y18536318D01*
X31605704Y18444315D01*
X31192068Y18808323D01*
X31114731Y18893433D01*
X30712869Y19426164D01*
X30815218Y19823589D01*
X31209922Y20212138D01*
X31739739Y20827782D01*
X31918333Y21256136D01*
X32169730Y21736048D01*
X32808701Y22476335D01*
X33662411Y23308707D01*
X34558028Y24064873D01*
X35322720Y24576544D01*
X35334724Y24582735D01*
X36171932Y24867523D01*
X37048006Y24966631D01*
X37709965Y24873639D01*
G36*
X42751252Y24575387D02*
X42664948Y24308084D01*
X42379954Y23979305D01*
X41883823Y23108791D01*
X41916391Y22364011D01*
X42369293Y21904405D01*
X43134164Y21889414D01*
X43641084Y22123768D01*
X44315789Y22409618D01*
X44533791Y22186113D01*
X44265782Y21505272D01*
X44120944Y21272044D01*
X43352631Y20538965D01*
X42510367Y20163546D01*
X41525762Y19752779D01*
X40700993Y19117234D01*
X40019752Y18467650D01*
X39541338Y18347182D01*
X39021574Y18739056D01*
X38791998Y18986079D01*
X38405070Y19479550D01*
X38411132Y19876214D01*
X38855596Y20434296D01*
X39090100Y20681077D01*
X39709805Y21504973D01*
X40022946Y22267864D01*
X40032222Y22377393D01*
X40321677Y23191962D01*
X41019913Y23993916D01*
X41871741Y24532002D01*
X42314496Y24624444D01*
X42751252Y24575387D01*
X42751252Y24575387D01*
G37*
X42751252Y24575387D02*
X42664948Y24308084D01*
X42379954Y23979305D01*
X41883823Y23108791D01*
X41916391Y22364011D01*
X42369293Y21904405D01*
X43134164Y21889414D01*
X43641084Y22123768D01*
X44315789Y22409618D01*
X44533791Y22186113D01*
X44265782Y21505272D01*
X44120944Y21272044D01*
X43352631Y20538965D01*
X42510367Y20163546D01*
X41525762Y19752779D01*
X40700993Y19117234D01*
X40019752Y18467650D01*
X39541338Y18347182D01*
X39021574Y18739056D01*
X38791998Y18986079D01*
X38405070Y19479550D01*
X38411132Y19876214D01*
X38855596Y20434296D01*
X39090100Y20681077D01*
X39709805Y21504973D01*
X40022946Y22267864D01*
X40032222Y22377393D01*
X40321677Y23191962D01*
X41019913Y23993916D01*
X41871741Y24532002D01*
X42314496Y24624444D01*
X42751252Y24575387D01*
G36*
X13447425Y43212945D02*
X13462952Y42808621D01*
X13369225Y41816756D01*
X13180290Y40344510D01*
X12910190Y38499041D01*
X12572970Y36387507D01*
X12480121Y35832375D01*
X12049822Y33341318D01*
X11700072Y31469276D01*
X11411307Y30136846D01*
X11163965Y29264625D01*
X10938483Y28773211D01*
X10715297Y28583202D01*
X10692770Y28577801D01*
X10176414Y28768194D01*
X9909051Y29455501D01*
X9762860Y30226638D01*
X9526361Y31533361D01*
X9227486Y33215681D01*
X8894166Y35113606D01*
X8554333Y37067145D01*
X8235920Y38916308D01*
X7966857Y40501103D01*
X7775076Y41661541D01*
X7744257Y41855271D01*
X7627708Y42799599D01*
X7707058Y43220377D01*
X8031164Y43284115D01*
X8157459Y43263530D01*
X8416721Y43130717D01*
X8641956Y42775360D01*
X8858348Y42100194D01*
X9091081Y41007956D01*
X9365339Y39401383D01*
X9671230Y37417081D01*
X9964472Y35517584D01*
X10229310Y33899233D01*
X10446138Y32674311D01*
X10595351Y31955100D01*
X10649697Y31813216D01*
X10742184Y32184580D01*
X10919411Y33131067D01*
X11160023Y34530268D01*
X11442663Y36259774D01*
X11608931Y37311524D01*
X12008366Y39710341D01*
X12360718Y41458444D01*
X12682187Y42607830D01*
X12988970Y43210499D01*
X13297268Y43318448D01*
X13447425Y43212945D01*
X13447425Y43212945D01*
G37*
X13447425Y43212945D02*
X13462952Y42808621D01*
X13369225Y41816756D01*
X13180290Y40344510D01*
X12910190Y38499041D01*
X12572970Y36387507D01*
X12480121Y35832375D01*
X12049822Y33341318D01*
X11700072Y31469276D01*
X11411307Y30136846D01*
X11163965Y29264625D01*
X10938483Y28773211D01*
X10715297Y28583202D01*
X10692770Y28577801D01*
X10176414Y28768194D01*
X9909051Y29455501D01*
X9762860Y30226638D01*
X9526361Y31533361D01*
X9227486Y33215681D01*
X8894166Y35113606D01*
X8554333Y37067145D01*
X8235920Y38916308D01*
X7966857Y40501103D01*
X7775076Y41661541D01*
X7744257Y41855271D01*
X7627708Y42799599D01*
X7707058Y43220377D01*
X8031164Y43284115D01*
X8157459Y43263530D01*
X8416721Y43130717D01*
X8641956Y42775360D01*
X8858348Y42100194D01*
X9091081Y41007956D01*
X9365339Y39401383D01*
X9671230Y37417081D01*
X9964472Y35517584D01*
X10229310Y33899233D01*
X10446138Y32674311D01*
X10595351Y31955100D01*
X10649697Y31813216D01*
X10742184Y32184580D01*
X10919411Y33131067D01*
X11160023Y34530268D01*
X11442663Y36259774D01*
X11608931Y37311524D01*
X12008366Y39710341D01*
X12360718Y41458444D01*
X12682187Y42607830D01*
X12988970Y43210499D01*
X13297268Y43318448D01*
X13447425Y43212945D01*
G36*
X19075298Y43113768D02*
X19800676Y42992516D01*
X20134800Y42741444D01*
X20209508Y42527917D01*
X20176070Y42159459D01*
X19788918Y41973345D01*
X18894286Y41912762D01*
X18538645Y41910556D01*
X16748889Y41910556D01*
X16748889Y36659457D01*
X18248194Y36550978D01*
X19355411Y36337862D01*
X19805860Y35984881D01*
X19599542Y35609979D01*
X18736457Y35331100D01*
X18248194Y35275688D01*
X16748889Y35167210D01*
X16748889Y29916111D01*
X18538645Y29916111D01*
X19600078Y29880031D01*
X20111824Y29733921D01*
X20227739Y29420978D01*
X20210796Y29298750D01*
X20002675Y28940789D01*
X19446255Y28725062D01*
X18389220Y28604206D01*
X17887307Y28576242D01*
X16527111Y28565519D01*
X15759175Y28704625D01*
X15501710Y28939418D01*
X15450750Y29424493D01*
X15415307Y30498035D01*
X15396713Y32043094D01*
X15396303Y33942725D01*
X15415409Y36079979D01*
X15418082Y36276509D01*
X15514166Y43145278D01*
X17802391Y43145278D01*
X19075298Y43113768D01*
X19075298Y43113768D01*
G37*
X19075298Y43113768D02*
X19800676Y42992516D01*
X20134800Y42741444D01*
X20209508Y42527917D01*
X20176070Y42159459D01*
X19788918Y41973345D01*
X18894286Y41912762D01*
X18538645Y41910556D01*
X16748889Y41910556D01*
X16748889Y36659457D01*
X18248194Y36550978D01*
X19355411Y36337862D01*
X19805860Y35984881D01*
X19599542Y35609979D01*
X18736457Y35331100D01*
X18248194Y35275688D01*
X16748889Y35167210D01*
X16748889Y29916111D01*
X18538645Y29916111D01*
X19600078Y29880031D01*
X20111824Y29733921D01*
X20227739Y29420978D01*
X20210796Y29298750D01*
X20002675Y28940789D01*
X19446255Y28725062D01*
X18389220Y28604206D01*
X17887307Y28576242D01*
X16527111Y28565519D01*
X15759175Y28704625D01*
X15501710Y28939418D01*
X15450750Y29424493D01*
X15415307Y30498035D01*
X15396713Y32043094D01*
X15396303Y33942725D01*
X15415409Y36079979D01*
X15418082Y36276509D01*
X15514166Y43145278D01*
X17802391Y43145278D01*
X19075298Y43113768D01*
G36*
X26591825Y43084392D02*
X27253727Y42772496D01*
X27753346Y42267078D01*
X27986881Y41514823D01*
X28037778Y40479441D01*
X27999754Y39428792D01*
X27838731Y38907662D01*
X27484281Y38741976D01*
X27332222Y38735556D01*
X26891306Y38839425D01*
X26682809Y39270730D01*
X26626936Y40209012D01*
X26626666Y40323056D01*
X26626666Y41910556D01*
X23451666Y41910556D01*
X23451666Y29916111D01*
X26626666Y29916111D01*
X26626666Y31705867D01*
X26662759Y32767337D01*
X26808907Y33279137D01*
X27121910Y33395142D01*
X27244028Y33378258D01*
X27668991Y32977410D01*
X27931635Y32123045D01*
X28017879Y31051455D01*
X27913643Y29998929D01*
X27604844Y29201758D01*
X27500386Y29076339D01*
X26782840Y28732345D01*
X25648631Y28543303D01*
X24371762Y28519980D01*
X23226235Y28673144D01*
X22657916Y28886035D01*
X22438264Y29076802D01*
X22277318Y29421491D01*
X22166167Y30018977D01*
X22095897Y30968131D01*
X22057594Y32367828D01*
X22042347Y34316940D01*
X22040555Y35734470D01*
X22043753Y38023904D01*
X22061015Y39711062D01*
X22103848Y40899219D01*
X22183756Y41691650D01*
X22312244Y42191631D01*
X22500817Y42502436D01*
X22760981Y42727341D01*
X22824606Y42772496D01*
X23909830Y43193580D01*
X25280509Y43297545D01*
X26591825Y43084392D01*
X26591825Y43084392D01*
G37*
X26591825Y43084392D02*
X27253727Y42772496D01*
X27753346Y42267078D01*
X27986881Y41514823D01*
X28037778Y40479441D01*
X27999754Y39428792D01*
X27838731Y38907662D01*
X27484281Y38741976D01*
X27332222Y38735556D01*
X26891306Y38839425D01*
X26682809Y39270730D01*
X26626936Y40209012D01*
X26626666Y40323056D01*
X26626666Y41910556D01*
X23451666Y41910556D01*
X23451666Y29916111D01*
X26626666Y29916111D01*
X26626666Y31705867D01*
X26662759Y32767337D01*
X26808907Y33279137D01*
X27121910Y33395142D01*
X27244028Y33378258D01*
X27668991Y32977410D01*
X27931635Y32123045D01*
X28017879Y31051455D01*
X27913643Y29998929D01*
X27604844Y29201758D01*
X27500386Y29076339D01*
X26782840Y28732345D01*
X25648631Y28543303D01*
X24371762Y28519980D01*
X23226235Y28673144D01*
X22657916Y28886035D01*
X22438264Y29076802D01*
X22277318Y29421491D01*
X22166167Y30018977D01*
X22095897Y30968131D01*
X22057594Y32367828D01*
X22042347Y34316940D01*
X22040555Y35734470D01*
X22043753Y38023904D01*
X22061015Y39711062D01*
X22103848Y40899219D01*
X22183756Y41691650D01*
X22312244Y42191631D01*
X22500817Y42502436D01*
X22760981Y42727341D01*
X22824606Y42772496D01*
X23909830Y43193580D01*
X25280509Y43297545D01*
X26591825Y43084392D01*
G36*
X31429158Y43274162D02*
X32179091Y43248312D01*
X33595199Y43169475D01*
X34448163Y43040690D01*
X34880253Y42825970D01*
X35027180Y42527917D01*
X34949991Y42082745D01*
X34382516Y41919178D01*
X34068651Y41910556D01*
X32992235Y41910556D01*
X32896256Y35300530D01*
X32857095Y32974516D01*
X32810293Y31259878D01*
X32745865Y30062440D01*
X32653828Y29288026D01*
X32524197Y28842460D01*
X32346989Y28631565D01*
X32182916Y28571885D01*
X31968351Y28577487D01*
X31809978Y28748869D01*
X31699354Y29176402D01*
X31628041Y29950459D01*
X31587597Y31161411D01*
X31569583Y32899627D01*
X31565555Y35181911D01*
X31565555Y41910556D01*
X30507222Y41910556D01*
X29735000Y42019477D01*
X29461365Y42430048D01*
X29448889Y42630951D01*
X29500250Y42991756D01*
X29750875Y43197396D01*
X30345574Y43280617D01*
X31429158Y43274162D01*
X31429158Y43274162D01*
G37*
X31429158Y43274162D02*
X32179091Y43248312D01*
X33595199Y43169475D01*
X34448163Y43040690D01*
X34880253Y42825970D01*
X35027180Y42527917D01*
X34949991Y42082745D01*
X34382516Y41919178D01*
X34068651Y41910556D01*
X32992235Y41910556D01*
X32896256Y35300530D01*
X32857095Y32974516D01*
X32810293Y31259878D01*
X32745865Y30062440D01*
X32653828Y29288026D01*
X32524197Y28842460D01*
X32346989Y28631565D01*
X32182916Y28571885D01*
X31968351Y28577487D01*
X31809978Y28748869D01*
X31699354Y29176402D01*
X31628041Y29950459D01*
X31587597Y31161411D01*
X31569583Y32899627D01*
X31565555Y35181911D01*
X31565555Y41910556D01*
X30507222Y41910556D01*
X29735000Y42019477D01*
X29461365Y42430048D01*
X29448889Y42630951D01*
X29500250Y42991756D01*
X29750875Y43197396D01*
X30345574Y43280617D01*
X31429158Y43274162D01*
G36*
X39503055Y43321667D02*
X40491282Y43316040D01*
X41234517Y43240557D01*
X41767629Y43007313D01*
X42125489Y42528404D01*
X42342965Y41715925D01*
X42454927Y40481973D01*
X42496244Y38738642D01*
X42501786Y36398029D01*
X42501666Y35762276D01*
X42495050Y33369692D01*
X42470349Y31590767D01*
X42420292Y30333688D01*
X42337603Y29506641D01*
X42215007Y29017814D01*
X42045232Y28775392D01*
X41943647Y28719132D01*
X41124919Y28557622D01*
X39972815Y28503395D01*
X38734558Y28546140D01*
X37657368Y28675545D01*
X36988468Y28881300D01*
X36927778Y28928333D01*
X36760594Y29364937D01*
X36690152Y29916111D01*
X37915555Y29916111D01*
X39591250Y29916081D01*
X41266944Y29916051D01*
X41198229Y35825109D01*
X41129515Y41734167D01*
X39522535Y41841690D01*
X37915555Y41949214D01*
X37915555Y29916111D01*
X36690152Y29916111D01*
X36637713Y30326411D01*
X36556223Y31861161D01*
X36513215Y34017591D01*
X36504444Y35971477D01*
X36507205Y38423360D01*
X36539740Y40258884D01*
X36638424Y41567214D01*
X36839634Y42437515D01*
X37179745Y42958951D01*
X37695135Y43220688D01*
X38422178Y43311891D01*
X39397252Y43321726D01*
X39503055Y43321667D01*
X39503055Y43321667D01*
G37*
X39503055Y43321667D02*
X40491282Y43316040D01*
X41234517Y43240557D01*
X41767629Y43007313D01*
X42125489Y42528404D01*
X42342965Y41715925D01*
X42454927Y40481973D01*
X42496244Y38738642D01*
X42501786Y36398029D01*
X42501666Y35762276D01*
X42495050Y33369692D01*
X42470349Y31590767D01*
X42420292Y30333688D01*
X42337603Y29506641D01*
X42215007Y29017814D01*
X42045232Y28775392D01*
X41943647Y28719132D01*
X41124919Y28557622D01*
X39972815Y28503395D01*
X38734558Y28546140D01*
X37657368Y28675545D01*
X36988468Y28881300D01*
X36927778Y28928333D01*
X36760594Y29364937D01*
X36690152Y29916111D01*
X37915555Y29916111D01*
X39591250Y29916081D01*
X41266944Y29916051D01*
X41198229Y35825109D01*
X41129515Y41734167D01*
X39522535Y41841690D01*
X37915555Y41949214D01*
X37915555Y29916111D01*
X36690152Y29916111D01*
X36637713Y30326411D01*
X36556223Y31861161D01*
X36513215Y34017591D01*
X36504444Y35971477D01*
X36507205Y38423360D01*
X36539740Y40258884D01*
X36638424Y41567214D01*
X36839634Y42437515D01*
X37179745Y42958951D01*
X37695135Y43220688D01*
X38422178Y43311891D01*
X39397252Y43321726D01*
X39503055Y43321667D01*
G36*
X48659371Y43281567D02*
X49636001Y43083680D01*
X50218464Y42611623D01*
X50498595Y41749017D01*
X50568227Y40379478D01*
X50541690Y39082588D01*
X50487795Y37531143D01*
X50413658Y36548399D01*
X50277647Y35997826D01*
X50038133Y35742895D01*
X49653483Y35647075D01*
X49488058Y35627154D01*
X48536949Y35517364D01*
X49696251Y32189977D01*
X50242375Y30579418D01*
X50549143Y29517077D01*
X50627861Y28891642D01*
X50489831Y28591801D01*
X50146358Y28506243D01*
X50070467Y28505000D01*
X49827114Y28813420D01*
X49424165Y29632251D01*
X48923017Y30801854D01*
X48385068Y32162587D01*
X47871714Y33554808D01*
X47444352Y34818878D01*
X47164379Y35795154D01*
X47087778Y36260444D01*
X47394305Y36512111D01*
X48132868Y36618861D01*
X48146111Y36618889D01*
X49204444Y36618889D01*
X49204444Y41951124D01*
X47705139Y41842645D01*
X46205833Y41734167D01*
X46109854Y35119583D01*
X46067977Y32762765D01*
X46015126Y31024240D01*
X45943157Y29816753D01*
X45843927Y29053049D01*
X45709292Y28645871D01*
X45531109Y28507964D01*
X45492493Y28505000D01*
X45316169Y28594141D01*
X45183618Y28917240D01*
X45088961Y29557812D01*
X45026321Y30599369D01*
X44989822Y32125427D01*
X44973584Y34219500D01*
X44971111Y35913333D01*
X44971111Y43321667D01*
X47196740Y43321667D01*
X48659371Y43281567D01*
X48659371Y43281567D01*
G37*
X48659371Y43281567D02*
X49636001Y43083680D01*
X50218464Y42611623D01*
X50498595Y41749017D01*
X50568227Y40379478D01*
X50541690Y39082588D01*
X50487795Y37531143D01*
X50413658Y36548399D01*
X50277647Y35997826D01*
X50038133Y35742895D01*
X49653483Y35647075D01*
X49488058Y35627154D01*
X48536949Y35517364D01*
X49696251Y32189977D01*
X50242375Y30579418D01*
X50549143Y29517077D01*
X50627861Y28891642D01*
X50489831Y28591801D01*
X50146358Y28506243D01*
X50070467Y28505000D01*
X49827114Y28813420D01*
X49424165Y29632251D01*
X48923017Y30801854D01*
X48385068Y32162587D01*
X47871714Y33554808D01*
X47444352Y34818878D01*
X47164379Y35795154D01*
X47087778Y36260444D01*
X47394305Y36512111D01*
X48132868Y36618861D01*
X48146111Y36618889D01*
X49204444Y36618889D01*
X49204444Y41951124D01*
X47705139Y41842645D01*
X46205833Y41734167D01*
X46109854Y35119583D01*
X46067977Y32762765D01*
X46015126Y31024240D01*
X45943157Y29816753D01*
X45843927Y29053049D01*
X45709292Y28645871D01*
X45531109Y28507964D01*
X45492493Y28505000D01*
X45316169Y28594141D01*
X45183618Y28917240D01*
X45088961Y29557812D01*
X45026321Y30599369D01*
X44989822Y32125427D01*
X44973584Y34219500D01*
X44971111Y35913333D01*
X44971111Y43321667D01*
X47196740Y43321667D01*
X48659371Y43281567D01*
G36*
X60803036Y43135950D02*
X61729530Y42533351D01*
X62182927Y41445698D01*
X62257222Y40479441D01*
X62219199Y39428792D01*
X62058176Y38907662D01*
X61703725Y38741976D01*
X61551666Y38735556D01*
X61110750Y38839425D01*
X60902254Y39270730D01*
X60846380Y40209012D01*
X60846111Y40323056D01*
X60846111Y41910556D01*
X57671111Y41910556D01*
X57671111Y40452576D01*
X57725588Y39708534D01*
X57944811Y39009178D01*
X58412470Y38198851D01*
X59212255Y37121897D01*
X59964166Y36187650D01*
X60997936Y34905318D01*
X61662398Y33992140D01*
X62039108Y33274565D01*
X62209624Y32579041D01*
X62255501Y31732016D01*
X62257222Y31308041D01*
X62212461Y30069378D01*
X62042930Y29343712D01*
X61695761Y28942156D01*
X61574859Y28870190D01*
X60811221Y28665570D01*
X59652851Y28554687D01*
X58405452Y28546437D01*
X57374728Y28649714D01*
X57053750Y28738638D01*
X56779407Y29164579D01*
X56622547Y30026060D01*
X56579052Y31103438D01*
X56644805Y32177069D01*
X56815690Y33027310D01*
X57087589Y33434516D01*
X57141944Y33443889D01*
X57474717Y33255057D01*
X57637249Y32601275D01*
X57671111Y31680000D01*
X57671111Y29916111D01*
X60846111Y29916111D01*
X60846111Y31533152D01*
X60802206Y32357660D01*
X60611272Y33067820D01*
X60184478Y33838884D01*
X59432995Y34846104D01*
X58729444Y35709114D01*
X57741363Y36922601D01*
X57121466Y37787294D01*
X56783970Y38494509D01*
X56643089Y39235563D01*
X56613038Y40201771D01*
X56612778Y40429661D01*
X56700774Y41864521D01*
X57046560Y42737306D01*
X57772827Y43178440D01*
X59002266Y43318349D01*
X59333312Y43321667D01*
X60803036Y43135950D01*
X60803036Y43135950D01*
G37*
X60803036Y43135950D02*
X61729530Y42533351D01*
X62182927Y41445698D01*
X62257222Y40479441D01*
X62219199Y39428792D01*
X62058176Y38907662D01*
X61703725Y38741976D01*
X61551666Y38735556D01*
X61110750Y38839425D01*
X60902254Y39270730D01*
X60846380Y40209012D01*
X60846111Y40323056D01*
X60846111Y41910556D01*
X57671111Y41910556D01*
X57671111Y40452576D01*
X57725588Y39708534D01*
X57944811Y39009178D01*
X58412470Y38198851D01*
X59212255Y37121897D01*
X59964166Y36187650D01*
X60997936Y34905318D01*
X61662398Y33992140D01*
X62039108Y33274565D01*
X62209624Y32579041D01*
X62255501Y31732016D01*
X62257222Y31308041D01*
X62212461Y30069378D01*
X62042930Y29343712D01*
X61695761Y28942156D01*
X61574859Y28870190D01*
X60811221Y28665570D01*
X59652851Y28554687D01*
X58405452Y28546437D01*
X57374728Y28649714D01*
X57053750Y28738638D01*
X56779407Y29164579D01*
X56622547Y30026060D01*
X56579052Y31103438D01*
X56644805Y32177069D01*
X56815690Y33027310D01*
X57087589Y33434516D01*
X57141944Y33443889D01*
X57474717Y33255057D01*
X57637249Y32601275D01*
X57671111Y31680000D01*
X57671111Y29916111D01*
X60846111Y29916111D01*
X60846111Y31533152D01*
X60802206Y32357660D01*
X60611272Y33067820D01*
X60184478Y33838884D01*
X59432995Y34846104D01*
X58729444Y35709114D01*
X57741363Y36922601D01*
X57121466Y37787294D01*
X56783970Y38494509D01*
X56643089Y39235563D01*
X56613038Y40201771D01*
X56612778Y40429661D01*
X56700774Y41864521D01*
X57046560Y42737306D01*
X57772827Y43178440D01*
X59002266Y43318349D01*
X59333312Y43321667D01*
X60803036Y43135950D01*
G36*
X68927523Y43163784D02*
X69528790Y42764895D01*
X69855646Y41985978D01*
X69991141Y40719703D01*
X70018323Y38858738D01*
X70018333Y38793699D01*
X69975443Y36760745D01*
X69848783Y35363529D01*
X69641365Y34632099D01*
X69595000Y34572778D01*
X69008564Y34320163D01*
X68012673Y34168756D01*
X67493172Y34149444D01*
X65814678Y34149444D01*
X65711645Y31419242D01*
X65633414Y30005632D01*
X65505850Y29154205D01*
X65292372Y28721707D01*
X64984009Y28569759D01*
X64775773Y28571027D01*
X64621755Y28723479D01*
X64515591Y29114034D01*
X64450918Y29829615D01*
X64421373Y30957141D01*
X64420591Y32583535D01*
X64442210Y34795717D01*
X64454843Y35797877D01*
X64534239Y41910556D01*
X65785000Y41910556D01*
X65785000Y35560556D01*
X68607222Y35560556D01*
X68607222Y41910556D01*
X65785000Y41910556D01*
X64534239Y41910556D01*
X64550277Y43145278D01*
X66569559Y43250803D01*
X67968796Y43289976D01*
X68927523Y43163784D01*
X68927523Y43163784D01*
G37*
X68927523Y43163784D02*
X69528790Y42764895D01*
X69855646Y41985978D01*
X69991141Y40719703D01*
X70018323Y38858738D01*
X70018333Y38793699D01*
X69975443Y36760745D01*
X69848783Y35363529D01*
X69641365Y34632099D01*
X69595000Y34572778D01*
X69008564Y34320163D01*
X68012673Y34168756D01*
X67493172Y34149444D01*
X65814678Y34149444D01*
X65711645Y31419242D01*
X65633414Y30005632D01*
X65505850Y29154205D01*
X65292372Y28721707D01*
X64984009Y28569759D01*
X64775773Y28571027D01*
X64621755Y28723479D01*
X64515591Y29114034D01*
X64450918Y29829615D01*
X64421373Y30957141D01*
X64420591Y32583535D01*
X64442210Y34795717D01*
X64454843Y35797877D01*
X64534239Y41910556D01*
X65785000Y41910556D01*
X65785000Y35560556D01*
X68607222Y35560556D01*
X68607222Y41910556D01*
X65785000Y41910556D01*
X64534239Y41910556D01*
X64550277Y43145278D01*
X66569559Y43250803D01*
X67968796Y43289976D01*
X68927523Y43163784D01*
G36*
X75135809Y43260672D02*
X75256654Y42865662D01*
X75462977Y41906298D01*
X75733377Y40508159D01*
X76046458Y38796823D01*
X76380821Y36897867D01*
X76715068Y34936869D01*
X77027800Y33039408D01*
X77297619Y31331062D01*
X77503127Y29937408D01*
X77622926Y28984025D01*
X77635617Y28596490D01*
X77634734Y28595475D01*
X77159925Y28502997D01*
X76667609Y28878508D01*
X76381474Y29526945D01*
X76368333Y29699798D01*
X76249434Y30847138D01*
X75808247Y31457486D01*
X74918032Y31671767D01*
X74587462Y31680000D01*
X73728350Y31634489D01*
X73286105Y31367869D01*
X73042816Y30685014D01*
X72943790Y30208186D01*
X72611662Y29110010D01*
X72189209Y28574551D01*
X71732801Y28672210D01*
X71722239Y28682575D01*
X71716428Y29076974D01*
X71822884Y30045586D01*
X72025044Y31468928D01*
X72306346Y33227519D01*
X72430108Y33946709D01*
X73609841Y33946709D01*
X73647850Y33390151D01*
X73861273Y33147492D01*
X74279048Y33090041D01*
X74714515Y33091111D01*
X75882920Y33091111D01*
X75434074Y35648750D01*
X75205146Y37078320D01*
X75035144Y38375094D01*
X74960610Y39260063D01*
X74960497Y39264722D01*
X74887388Y39928487D01*
X74731040Y39960553D01*
X74515713Y39426538D01*
X74265669Y38392062D01*
X74005169Y36922742D01*
X73944309Y36516284D01*
X73718306Y34945857D01*
X73609841Y33946709D01*
X72430108Y33946709D01*
X72542350Y34598953D01*
X72901532Y36635714D01*
X73233548Y38529294D01*
X73511611Y40126119D01*
X73708936Y41272616D01*
X73776734Y41676201D01*
X74070967Y42619947D01*
X74519155Y43230940D01*
X74990995Y43357264D01*
X75135809Y43260672D01*
X75135809Y43260672D01*
G37*
X75135809Y43260672D02*
X75256654Y42865662D01*
X75462977Y41906298D01*
X75733377Y40508159D01*
X76046458Y38796823D01*
X76380821Y36897867D01*
X76715068Y34936869D01*
X77027800Y33039408D01*
X77297619Y31331062D01*
X77503127Y29937408D01*
X77622926Y28984025D01*
X77635617Y28596490D01*
X77634734Y28595475D01*
X77159925Y28502997D01*
X76667609Y28878508D01*
X76381474Y29526945D01*
X76368333Y29699798D01*
X76249434Y30847138D01*
X75808247Y31457486D01*
X74918032Y31671767D01*
X74587462Y31680000D01*
X73728350Y31634489D01*
X73286105Y31367869D01*
X73042816Y30685014D01*
X72943790Y30208186D01*
X72611662Y29110010D01*
X72189209Y28574551D01*
X71732801Y28672210D01*
X71722239Y28682575D01*
X71716428Y29076974D01*
X71822884Y30045586D01*
X72025044Y31468928D01*
X72306346Y33227519D01*
X72430108Y33946709D01*
X73609841Y33946709D01*
X73647850Y33390151D01*
X73861273Y33147492D01*
X74279048Y33090041D01*
X74714515Y33091111D01*
X75882920Y33091111D01*
X75434074Y35648750D01*
X75205146Y37078320D01*
X75035144Y38375094D01*
X74960610Y39260063D01*
X74960497Y39264722D01*
X74887388Y39928487D01*
X74731040Y39960553D01*
X74515713Y39426538D01*
X74265669Y38392062D01*
X74005169Y36922742D01*
X73944309Y36516284D01*
X73718306Y34945857D01*
X73609841Y33946709D01*
X72430108Y33946709D01*
X72542350Y34598953D01*
X72901532Y36635714D01*
X73233548Y38529294D01*
X73511611Y40126119D01*
X73708936Y41272616D01*
X73776734Y41676201D01*
X74070967Y42619947D01*
X74519155Y43230940D01*
X74990995Y43357264D01*
X75135809Y43260672D01*
G36*
X82365555Y43321667D02*
X83782192Y43224883D01*
X84638839Y42853688D01*
X85064245Y42086816D01*
X85187153Y40803003D01*
X85187778Y40663421D01*
X85139712Y39497536D01*
X84971191Y38899271D01*
X84658611Y38735556D01*
X84309830Y38943313D01*
X84150961Y39649734D01*
X84129444Y40323056D01*
X84129444Y41910556D01*
X80954444Y41910556D01*
X80954444Y29916111D01*
X84129444Y29916111D01*
X84129444Y31680000D01*
X84186094Y32789244D01*
X84382228Y33331017D01*
X84658611Y33443889D01*
X84977886Y33133099D01*
X85170319Y32345202D01*
X85237234Y31296908D01*
X85179955Y30204929D01*
X84999803Y29285975D01*
X84698104Y28756755D01*
X84629758Y28719132D01*
X83790243Y28552389D01*
X82642844Y28504320D01*
X81446531Y28563309D01*
X80460275Y28717736D01*
X79966666Y28928333D01*
X79799483Y29364937D01*
X79676601Y30326411D01*
X79595111Y31861161D01*
X79552104Y34017591D01*
X79543333Y35971477D01*
X79546789Y38423021D01*
X79579992Y40258226D01*
X79677191Y41566295D01*
X79872638Y42436429D01*
X80200583Y42957832D01*
X80695278Y43219706D01*
X81390972Y43311253D01*
X82321916Y43321676D01*
X82365555Y43321667D01*
X82365555Y43321667D01*
G37*
X82365555Y43321667D02*
X83782192Y43224883D01*
X84638839Y42853688D01*
X85064245Y42086816D01*
X85187153Y40803003D01*
X85187778Y40663421D01*
X85139712Y39497536D01*
X84971191Y38899271D01*
X84658611Y38735556D01*
X84309830Y38943313D01*
X84150961Y39649734D01*
X84129444Y40323056D01*
X84129444Y41910556D01*
X80954444Y41910556D01*
X80954444Y29916111D01*
X84129444Y29916111D01*
X84129444Y31680000D01*
X84186094Y32789244D01*
X84382228Y33331017D01*
X84658611Y33443889D01*
X84977886Y33133099D01*
X85170319Y32345202D01*
X85237234Y31296908D01*
X85179955Y30204929D01*
X84999803Y29285975D01*
X84698104Y28756755D01*
X84629758Y28719132D01*
X83790243Y28552389D01*
X82642844Y28504320D01*
X81446531Y28563309D01*
X80460275Y28717736D01*
X79966666Y28928333D01*
X79799483Y29364937D01*
X79676601Y30326411D01*
X79595111Y31861161D01*
X79552104Y34017591D01*
X79543333Y35971477D01*
X79546789Y38423021D01*
X79579992Y40258226D01*
X79677191Y41566295D01*
X79872638Y42436429D01*
X80200583Y42957832D01*
X80695278Y43219706D01*
X81390972Y43311253D01*
X82321916Y43321676D01*
X82365555Y43321667D01*
G36*
X89858540Y43250306D02*
X91119653Y43150809D01*
X91828320Y42972214D01*
X92136942Y42667044D01*
X92177463Y42527917D01*
X92143063Y42159413D01*
X91754940Y41973290D01*
X90859237Y41912743D01*
X90505311Y41910556D01*
X88715555Y41910556D01*
X88715555Y36618889D01*
X90303055Y36618889D01*
X91295117Y36572725D01*
X91764234Y36381034D01*
X91889949Y35964019D01*
X91890555Y35913333D01*
X91786685Y35472417D01*
X91355381Y35263921D01*
X90417099Y35208047D01*
X90303055Y35207778D01*
X88715555Y35207778D01*
X88715555Y29916111D01*
X90505311Y29916111D01*
X91566745Y29880031D01*
X92078491Y29733921D01*
X92194405Y29420978D01*
X92177463Y29298750D01*
X91968978Y28940439D01*
X91411616Y28724641D01*
X90352975Y28603882D01*
X89858540Y28576361D01*
X87657222Y28471333D01*
X87657222Y43355334D01*
X89858540Y43250306D01*
X89858540Y43250306D01*
G37*
X89858540Y43250306D02*
X91119653Y43150809D01*
X91828320Y42972214D01*
X92136942Y42667044D01*
X92177463Y42527917D01*
X92143063Y42159413D01*
X91754940Y41973290D01*
X90859237Y41912743D01*
X90505311Y41910556D01*
X88715555Y41910556D01*
X88715555Y36618889D01*
X90303055Y36618889D01*
X91295117Y36572725D01*
X91764234Y36381034D01*
X91889949Y35964019D01*
X91890555Y35913333D01*
X91786685Y35472417D01*
X91355381Y35263921D01*
X90417099Y35208047D01*
X90303055Y35207778D01*
X88715555Y35207778D01*
X88715555Y29916111D01*
X90505311Y29916111D01*
X91566745Y29880031D01*
X92078491Y29733921D01*
X92194405Y29420978D01*
X92177463Y29298750D01*
X91968978Y28940439D01*
X91411616Y28724641D01*
X90352975Y28603882D01*
X89858540Y28576361D01*
X87657222Y28471333D01*
X87657222Y43355334D01*
X89858540Y43250306D01*
G36*
X79512956Y15578562D02*
X79963763Y15007335D01*
X79951033Y14275099D01*
X79693824Y13889221D01*
X79216286Y13441006D01*
X78880541Y13425096D01*
X78337676Y13799845D01*
X77870255Y14465171D01*
X77934812Y15180403D01*
X78476373Y15673467D01*
X78729318Y15738214D01*
X79512956Y15578562D01*
X79512956Y15578562D01*
G37*
X79512956Y15578562D02*
X79963763Y15007335D01*
X79951033Y14275099D01*
X79693824Y13889221D01*
X79216286Y13441006D01*
X78880541Y13425096D01*
X78337676Y13799845D01*
X77870255Y14465171D01*
X77934812Y15180403D01*
X78476373Y15673467D01*
X78729318Y15738214D01*
X79512956Y15578562D01*
G36*
X82702290Y19216045D02*
X82995669Y18580648D01*
X82863539Y18024239D01*
X82240519Y17383347D01*
X81576020Y17437081D01*
X81156031Y17770476D01*
X80714546Y18489218D01*
X80961835Y19127096D01*
X81409794Y19477983D01*
X82101979Y19586844D01*
X82702290Y19216045D01*
X82702290Y19216045D01*
G37*
X82702290Y19216045D02*
X82995669Y18580648D01*
X82863539Y18024239D01*
X82240519Y17383347D01*
X81576020Y17437081D01*
X81156031Y17770476D01*
X80714546Y18489218D01*
X80961835Y19127096D01*
X81409794Y19477983D01*
X82101979Y19586844D01*
X82702290Y19216045D01*
G36*
X78469812Y20454954D02*
X78650723Y19778599D01*
X78580024Y19420972D01*
X78158586Y19023346D01*
X77572883Y19084683D01*
X77207945Y19492273D01*
X77192317Y20241257D01*
X77664312Y20699782D01*
X77938910Y20743889D01*
X78469812Y20454954D01*
X78469812Y20454954D01*
G37*
X78469812Y20454954D02*
X78650723Y19778599D01*
X78580024Y19420972D01*
X78158586Y19023346D01*
X77572883Y19084683D01*
X77207945Y19492273D01*
X77192317Y20241257D01*
X77664312Y20699782D01*
X77938910Y20743889D01*
X78469812Y20454954D01*
D12*
X17780000Y11430000D03*
D13*
X20320000Y11430000D03*
D14*
X5080000Y21590000D03*
D15*
X5080000Y13970000D03*
D16*
X76200000Y4390000D03*
X76200000Y8890000D03*
X82700000Y4390000D03*
X82700000Y8890000D03*
D17*
X71120000Y25400000D03*
X93980000Y25400000D03*
D18*
X17780000Y11430000D02*
X17780000Y3810000D01*
X5080000Y3810000D02*
X5080000Y13970000D01*
X6350000Y2540000D02*
X5080000Y3810000D01*
X16510000Y2540000D02*
X6350000Y2540000D01*
X17780000Y3810000D02*
X16510000Y2540000D01*
X76200000Y4390000D02*
X74240000Y4390000D01*
X20320000Y3810000D02*
X20320000Y11430000D01*
X21590000Y2540000D02*
X20320000Y3810000D01*
X72390000Y2540000D02*
X21590000Y2540000D01*
X74240000Y4390000D02*
X72390000Y2540000D01*
X71120000Y25400000D02*
X69850000Y26670000D01*
X5080000Y24130000D02*
X5080000Y21590000D01*
X7620000Y26670000D02*
X5080000Y24130000D01*
X69850000Y26670000D02*
X7620000Y26670000D01*
X93980000Y25400000D02*
X93980000Y8890000D01*
X83970000Y7620000D02*
X82700000Y8890000D01*
X92710000Y7620000D02*
X83970000Y7620000D01*
X93980000Y8890000D02*
X92710000Y7620000D01*
M02*
