G04 #@! TF.FileFunction,Legend,Top*
%FSLAX46Y46*%
G04 Gerber Fmt 4.6, Leading zero omitted, Abs format (unit mm)*
G04 Created by KiCad (PCBNEW 4.0.7) date Tue Mar 13 06:06:55 2018*
%MOMM*%
%LPD*%
G01*
G04 APERTURE LIST*
%ADD10C,0.100000*%
%ADD11C,0.300000*%
%ADD12C,0.010000*%
%ADD13C,0.120000*%
G04 APERTURE END LIST*
D10*
D11*
X86471429Y5676429D02*
X86471429Y7176429D01*
X86971429Y6105000D01*
X87471429Y7176429D01*
X87471429Y5676429D01*
X88828572Y5676429D02*
X88828572Y6462143D01*
X88757143Y6605000D01*
X88614286Y6676429D01*
X88328572Y6676429D01*
X88185715Y6605000D01*
X88828572Y5747857D02*
X88685715Y5676429D01*
X88328572Y5676429D01*
X88185715Y5747857D01*
X88114286Y5890714D01*
X88114286Y6033571D01*
X88185715Y6176429D01*
X88328572Y6247857D01*
X88685715Y6247857D01*
X88828572Y6319286D01*
X89542858Y5676429D02*
X89542858Y7176429D01*
X89685715Y6247857D02*
X90114286Y5676429D01*
X90114286Y6676429D02*
X89542858Y6105000D01*
X91328572Y5747857D02*
X91185715Y5676429D01*
X90900001Y5676429D01*
X90757144Y5747857D01*
X90685715Y5890714D01*
X90685715Y6462143D01*
X90757144Y6605000D01*
X90900001Y6676429D01*
X91185715Y6676429D01*
X91328572Y6605000D01*
X91400001Y6462143D01*
X91400001Y6319286D01*
X90685715Y6176429D01*
X85435714Y3197857D02*
X85650000Y3126429D01*
X86007143Y3126429D01*
X86150000Y3197857D01*
X86221429Y3269286D01*
X86292857Y3412143D01*
X86292857Y3555000D01*
X86221429Y3697857D01*
X86150000Y3769286D01*
X86007143Y3840714D01*
X85721429Y3912143D01*
X85578571Y3983571D01*
X85507143Y4055000D01*
X85435714Y4197857D01*
X85435714Y4340714D01*
X85507143Y4483571D01*
X85578571Y4555000D01*
X85721429Y4626429D01*
X86078571Y4626429D01*
X86292857Y4555000D01*
X86721428Y4126429D02*
X87292857Y4126429D01*
X86935714Y4626429D02*
X86935714Y3340714D01*
X87007142Y3197857D01*
X87150000Y3126429D01*
X87292857Y3126429D01*
X88435714Y4126429D02*
X88435714Y3126429D01*
X87792857Y4126429D02*
X87792857Y3340714D01*
X87864285Y3197857D01*
X88007143Y3126429D01*
X88221428Y3126429D01*
X88364285Y3197857D01*
X88435714Y3269286D01*
X88935714Y4126429D02*
X89507143Y4126429D01*
X89150000Y3126429D02*
X89150000Y4412143D01*
X89221428Y4555000D01*
X89364286Y4626429D01*
X89507143Y4626429D01*
X89792857Y4126429D02*
X90364286Y4126429D01*
X90007143Y3126429D02*
X90007143Y4412143D01*
X90078571Y4555000D01*
X90221429Y4626429D01*
X90364286Y4626429D01*
X90864286Y3269286D02*
X90935714Y3197857D01*
X90864286Y3126429D01*
X90792857Y3197857D01*
X90864286Y3269286D01*
X90864286Y3126429D01*
X90864286Y3697857D02*
X90792857Y4555000D01*
X90864286Y4626429D01*
X90935714Y4555000D01*
X90864286Y3697857D01*
X90864286Y4626429D01*
X91578572Y3269286D02*
X91650000Y3197857D01*
X91578572Y3126429D01*
X91507143Y3197857D01*
X91578572Y3269286D01*
X91578572Y3126429D01*
X91578572Y3697857D02*
X91507143Y4555000D01*
X91578572Y4626429D01*
X91650000Y4555000D01*
X91578572Y3697857D01*
X91578572Y4626429D01*
X92292858Y3269286D02*
X92364286Y3197857D01*
X92292858Y3126429D01*
X92221429Y3197857D01*
X92292858Y3269286D01*
X92292858Y3126429D01*
X92292858Y3697857D02*
X92221429Y4555000D01*
X92292858Y4626429D01*
X92364286Y4555000D01*
X92292858Y3697857D01*
X92292858Y4626429D01*
X30387141Y6992857D02*
X31101427Y4992857D01*
X31815713Y6992857D01*
X34101427Y5135714D02*
X33815713Y4992857D01*
X33244284Y4992857D01*
X32958570Y5135714D01*
X32815713Y5421429D01*
X32815713Y6564286D01*
X32958570Y6850000D01*
X33244284Y6992857D01*
X33815713Y6992857D01*
X34101427Y6850000D01*
X34244284Y6564286D01*
X34244284Y6278571D01*
X32815713Y5992857D01*
X36815713Y5135714D02*
X36529999Y4992857D01*
X35958570Y4992857D01*
X35672856Y5135714D01*
X35529999Y5278571D01*
X35387142Y5564286D01*
X35387142Y6421429D01*
X35529999Y6707143D01*
X35672856Y6850000D01*
X35958570Y6992857D01*
X36529999Y6992857D01*
X36815713Y6850000D01*
X37672856Y6992857D02*
X38815713Y6992857D01*
X38101428Y7992857D02*
X38101428Y5421429D01*
X38244285Y5135714D01*
X38529999Y4992857D01*
X38815713Y4992857D01*
X40244285Y4992857D02*
X39958571Y5135714D01*
X39815714Y5278571D01*
X39672857Y5564286D01*
X39672857Y6421429D01*
X39815714Y6707143D01*
X39958571Y6850000D01*
X40244285Y6992857D01*
X40672857Y6992857D01*
X40958571Y6850000D01*
X41101428Y6707143D01*
X41244285Y6421429D01*
X41244285Y5564286D01*
X41101428Y5278571D01*
X40958571Y5135714D01*
X40672857Y4992857D01*
X40244285Y4992857D01*
X42530000Y4992857D02*
X42530000Y6992857D01*
X42530000Y6421429D02*
X42672857Y6707143D01*
X42815714Y6850000D01*
X43101428Y6992857D01*
X43387143Y6992857D01*
X44387143Y6135714D02*
X46672857Y6135714D01*
X47958572Y5135714D02*
X48244286Y4992857D01*
X48815714Y4992857D01*
X49101429Y5135714D01*
X49244286Y5421429D01*
X49244286Y5564286D01*
X49101429Y5850000D01*
X48815714Y5992857D01*
X48387143Y5992857D01*
X48101429Y6135714D01*
X47958572Y6421429D01*
X47958572Y6564286D01*
X48101429Y6850000D01*
X48387143Y6992857D01*
X48815714Y6992857D01*
X49101429Y6850000D01*
X50530000Y6992857D02*
X50530000Y3992857D01*
X50530000Y6850000D02*
X50815714Y6992857D01*
X51387143Y6992857D01*
X51672857Y6850000D01*
X51815714Y6707143D01*
X51958571Y6421429D01*
X51958571Y5564286D01*
X51815714Y5278571D01*
X51672857Y5135714D01*
X51387143Y4992857D01*
X50815714Y4992857D01*
X50530000Y5135714D01*
X54530000Y4992857D02*
X54530000Y6564286D01*
X54387143Y6850000D01*
X54101429Y6992857D01*
X53530000Y6992857D01*
X53244286Y6850000D01*
X54530000Y5135714D02*
X54244286Y4992857D01*
X53530000Y4992857D01*
X53244286Y5135714D01*
X53101429Y5421429D01*
X53101429Y5707143D01*
X53244286Y5992857D01*
X53530000Y6135714D01*
X54244286Y6135714D01*
X54530000Y6278571D01*
X57244286Y5135714D02*
X56958572Y4992857D01*
X56387143Y4992857D01*
X56101429Y5135714D01*
X55958572Y5278571D01*
X55815715Y5564286D01*
X55815715Y6421429D01*
X55958572Y6707143D01*
X56101429Y6850000D01*
X56387143Y6992857D01*
X56958572Y6992857D01*
X57244286Y6850000D01*
X59672858Y5135714D02*
X59387144Y4992857D01*
X58815715Y4992857D01*
X58530001Y5135714D01*
X58387144Y5421429D01*
X58387144Y6564286D01*
X58530001Y6850000D01*
X58815715Y6992857D01*
X59387144Y6992857D01*
X59672858Y6850000D01*
X59815715Y6564286D01*
X59815715Y6278571D01*
X58387144Y5992857D01*
X61101430Y5278571D02*
X61244287Y5135714D01*
X61101430Y4992857D01*
X60958573Y5135714D01*
X61101430Y5278571D01*
X61101430Y4992857D01*
X62958572Y4992857D02*
X62672858Y5135714D01*
X62530001Y5278571D01*
X62387144Y5564286D01*
X62387144Y6421429D01*
X62530001Y6707143D01*
X62672858Y6850000D01*
X62958572Y6992857D01*
X63387144Y6992857D01*
X63672858Y6850000D01*
X63815715Y6707143D01*
X63958572Y6421429D01*
X63958572Y5564286D01*
X63815715Y5278571D01*
X63672858Y5135714D01*
X63387144Y4992857D01*
X62958572Y4992857D01*
X65244287Y4992857D02*
X65244287Y6992857D01*
X65244287Y6421429D02*
X65387144Y6707143D01*
X65530001Y6850000D01*
X65815715Y6992857D01*
X66101430Y6992857D01*
X68387144Y6992857D02*
X68387144Y4564286D01*
X68244287Y4278571D01*
X68101430Y4135714D01*
X67815715Y3992857D01*
X67387144Y3992857D01*
X67101430Y4135714D01*
X68387144Y5135714D02*
X68101430Y4992857D01*
X67530001Y4992857D01*
X67244287Y5135714D01*
X67101430Y5278571D01*
X66958573Y5564286D01*
X66958573Y6421429D01*
X67101430Y6707143D01*
X67244287Y6850000D01*
X67530001Y6992857D01*
X68101430Y6992857D01*
X68387144Y6850000D01*
D12*
G36*
X20982222Y12178176D02*
X20703774Y11164926D01*
X19965366Y10583827D01*
X18912400Y10504617D01*
X18071805Y10782300D01*
X17322986Y11363955D01*
X17102040Y12243646D01*
X17101666Y12296472D01*
X17135768Y12890533D01*
X17353826Y13199744D01*
X17929474Y13317089D01*
X19036344Y13335556D01*
X20982222Y13335556D01*
X20982222Y12178176D01*
X20982222Y12178176D01*
G37*
X20982222Y12178176D02*
X20703774Y11164926D01*
X19965366Y10583827D01*
X18912400Y10504617D01*
X18071805Y10782300D01*
X17322986Y11363955D01*
X17102040Y12243646D01*
X17101666Y12296472D01*
X17135768Y12890533D01*
X17353826Y13199744D01*
X17929474Y13317089D01*
X19036344Y13335556D01*
X20982222Y13335556D01*
X20982222Y12178176D01*
D13*
X22040000Y11429538D02*
G75*
G03X16490000Y12974830I-2990000J462D01*
G01*
X22040000Y11430462D02*
G75*
G02X16490000Y9885170I-2990000J-462D01*
G01*
X21550000Y11430000D02*
G75*
G03X21550000Y11430000I-2500000J0D01*
G01*
X16490000Y12975000D02*
X16490000Y9885000D01*
X5940000Y19640000D02*
X4220000Y19640000D01*
X4220000Y19640000D02*
X4220000Y15920000D01*
X4220000Y15920000D02*
X5940000Y15920000D01*
X5940000Y15920000D02*
X5940000Y19640000D01*
X5080000Y20710000D02*
X5080000Y19640000D01*
X5080000Y14850000D02*
X5080000Y15920000D01*
X77200000Y3390000D02*
X81700000Y3390000D01*
X75950000Y7390000D02*
X75950000Y5890000D01*
X81700000Y9890000D02*
X77200000Y9890000D01*
X82950000Y5890000D02*
X82950000Y7390000D01*
M02*
