G04 #@! TF.FileFunction,Legend,Bot*
%FSLAX46Y46*%
G04 Gerber Fmt 4.6, Leading zero omitted, Abs format (unit mm)*
G04 Created by KiCad (PCBNEW 4.0.7) date Tue Mar 13 06:06:55 2018*
%MOMM*%
%LPD*%
G01*
G04 APERTURE LIST*
%ADD10C,0.100000*%
%ADD11C,0.400000*%
%ADD12C,0.300000*%
%ADD13C,0.010000*%
%ADD14C,0.120000*%
G04 APERTURE END LIST*
D10*
D11*
X83406192Y38528571D02*
X83406192Y36528571D01*
X83406192Y38433333D02*
X83215715Y38528571D01*
X82834763Y38528571D01*
X82644287Y38433333D01*
X82549049Y38338095D01*
X82453811Y38147619D01*
X82453811Y37576190D01*
X82549049Y37385714D01*
X82644287Y37290476D01*
X82834763Y37195238D01*
X83215715Y37195238D01*
X83406192Y37290476D01*
X80739525Y37290476D02*
X80930001Y37195238D01*
X81310953Y37195238D01*
X81501429Y37290476D01*
X81596668Y37385714D01*
X81691906Y37576190D01*
X81691906Y38147619D01*
X81596668Y38338095D01*
X81501429Y38433333D01*
X81310953Y38528571D01*
X80930001Y38528571D01*
X80739525Y38433333D01*
X79882382Y37195238D02*
X79882382Y39195238D01*
X79882382Y38433333D02*
X79691905Y38528571D01*
X79310953Y38528571D01*
X79120477Y38433333D01*
X79025239Y38338095D01*
X78930001Y38147619D01*
X78930001Y37576190D01*
X79025239Y37385714D01*
X79120477Y37290476D01*
X79310953Y37195238D01*
X79691905Y37195238D01*
X79882382Y37290476D01*
X78263334Y38528571D02*
X77882381Y37195238D01*
X77501429Y38147619D01*
X77120477Y37195238D01*
X76739524Y38528571D01*
X75120477Y37195238D02*
X75120477Y38242857D01*
X75215715Y38433333D01*
X75406191Y38528571D01*
X75787143Y38528571D01*
X75977620Y38433333D01*
X75120477Y37290476D02*
X75310953Y37195238D01*
X75787143Y37195238D01*
X75977620Y37290476D01*
X76072858Y37480952D01*
X76072858Y37671429D01*
X75977620Y37861905D01*
X75787143Y37957143D01*
X75310953Y37957143D01*
X75120477Y38052381D01*
X74358572Y38528571D02*
X73882381Y37195238D01*
X73406191Y38528571D02*
X73882381Y37195238D01*
X74072857Y36719048D01*
X74168096Y36623810D01*
X74358572Y36528571D01*
X72644286Y37385714D02*
X72549047Y37290476D01*
X72644286Y37195238D01*
X72739524Y37290476D01*
X72644286Y37385714D01*
X72644286Y37195238D01*
X70834762Y37290476D02*
X71025238Y37195238D01*
X71406190Y37195238D01*
X71596666Y37290476D01*
X71691905Y37385714D01*
X71787143Y37576190D01*
X71787143Y38147619D01*
X71691905Y38338095D01*
X71596666Y38433333D01*
X71406190Y38528571D01*
X71025238Y38528571D01*
X70834762Y38433333D01*
X69691904Y37195238D02*
X69882380Y37290476D01*
X69977619Y37385714D01*
X70072857Y37576190D01*
X70072857Y38147619D01*
X69977619Y38338095D01*
X69882380Y38433333D01*
X69691904Y38528571D01*
X69406190Y38528571D01*
X69215714Y38433333D01*
X69120476Y38338095D01*
X69025238Y38147619D01*
X69025238Y37576190D01*
X69120476Y37385714D01*
X69215714Y37290476D01*
X69406190Y37195238D01*
X69691904Y37195238D01*
X68168095Y37195238D02*
X68168095Y38528571D01*
X68168095Y38338095D02*
X68072856Y38433333D01*
X67882380Y38528571D01*
X67596666Y38528571D01*
X67406190Y38433333D01*
X67310952Y38242857D01*
X67310952Y37195238D01*
X67310952Y38242857D02*
X67215714Y38433333D01*
X67025237Y38528571D01*
X66739523Y38528571D01*
X66549047Y38433333D01*
X66453809Y38242857D01*
X66453809Y37195238D01*
D12*
X97884286Y47652857D02*
X97670000Y47581429D01*
X97312857Y47581429D01*
X97170000Y47652857D01*
X97098571Y47724286D01*
X97027143Y47867143D01*
X97027143Y48010000D01*
X97098571Y48152857D01*
X97170000Y48224286D01*
X97312857Y48295714D01*
X97598571Y48367143D01*
X97741429Y48438571D01*
X97812857Y48510000D01*
X97884286Y48652857D01*
X97884286Y48795714D01*
X97812857Y48938571D01*
X97741429Y49010000D01*
X97598571Y49081429D01*
X97241429Y49081429D01*
X97027143Y49010000D01*
X96384286Y48581429D02*
X96384286Y47081429D01*
X96384286Y48510000D02*
X96241429Y48581429D01*
X95955715Y48581429D01*
X95812858Y48510000D01*
X95741429Y48438571D01*
X95670000Y48295714D01*
X95670000Y47867143D01*
X95741429Y47724286D01*
X95812858Y47652857D01*
X95955715Y47581429D01*
X96241429Y47581429D01*
X96384286Y47652857D01*
X94812857Y47581429D02*
X94955715Y47652857D01*
X95027143Y47724286D01*
X95098572Y47867143D01*
X95098572Y48295714D01*
X95027143Y48438571D01*
X94955715Y48510000D01*
X94812857Y48581429D01*
X94598572Y48581429D01*
X94455715Y48510000D01*
X94384286Y48438571D01*
X94312857Y48295714D01*
X94312857Y47867143D01*
X94384286Y47724286D01*
X94455715Y47652857D01*
X94598572Y47581429D01*
X94812857Y47581429D01*
X93670000Y48581429D02*
X93670000Y47581429D01*
X93670000Y48438571D02*
X93598572Y48510000D01*
X93455714Y48581429D01*
X93241429Y48581429D01*
X93098572Y48510000D01*
X93027143Y48367143D01*
X93027143Y47581429D01*
X92384286Y47652857D02*
X92241429Y47581429D01*
X91955714Y47581429D01*
X91812857Y47652857D01*
X91741429Y47795714D01*
X91741429Y47867143D01*
X91812857Y48010000D01*
X91955714Y48081429D01*
X92170000Y48081429D01*
X92312857Y48152857D01*
X92384286Y48295714D01*
X92384286Y48367143D01*
X92312857Y48510000D01*
X92170000Y48581429D01*
X91955714Y48581429D01*
X91812857Y48510000D01*
X90884285Y47581429D02*
X91027143Y47652857D01*
X91098571Y47724286D01*
X91170000Y47867143D01*
X91170000Y48295714D01*
X91098571Y48438571D01*
X91027143Y48510000D01*
X90884285Y48581429D01*
X90670000Y48581429D01*
X90527143Y48510000D01*
X90455714Y48438571D01*
X90384285Y48295714D01*
X90384285Y47867143D01*
X90455714Y47724286D01*
X90527143Y47652857D01*
X90670000Y47581429D01*
X90884285Y47581429D01*
X89741428Y47581429D02*
X89741428Y48581429D01*
X89741428Y48295714D02*
X89670000Y48438571D01*
X89598571Y48510000D01*
X89455714Y48581429D01*
X89312857Y48581429D01*
X88241429Y47652857D02*
X88384286Y47581429D01*
X88670000Y47581429D01*
X88812857Y47652857D01*
X88884286Y47795714D01*
X88884286Y48367143D01*
X88812857Y48510000D01*
X88670000Y48581429D01*
X88384286Y48581429D01*
X88241429Y48510000D01*
X88170000Y48367143D01*
X88170000Y48224286D01*
X88884286Y48081429D01*
X86884286Y47581429D02*
X86884286Y49081429D01*
X86884286Y47652857D02*
X87027143Y47581429D01*
X87312857Y47581429D01*
X87455715Y47652857D01*
X87527143Y47724286D01*
X87598572Y47867143D01*
X87598572Y48295714D01*
X87527143Y48438571D01*
X87455715Y48510000D01*
X87312857Y48581429D01*
X87027143Y48581429D01*
X86884286Y48510000D01*
X85027143Y47581429D02*
X85027143Y49081429D01*
X85027143Y48510000D02*
X84884286Y48581429D01*
X84598572Y48581429D01*
X84455715Y48510000D01*
X84384286Y48438571D01*
X84312857Y48295714D01*
X84312857Y47867143D01*
X84384286Y47724286D01*
X84455715Y47652857D01*
X84598572Y47581429D01*
X84884286Y47581429D01*
X85027143Y47652857D01*
X83812857Y48581429D02*
X83455714Y47581429D01*
X83098572Y48581429D02*
X83455714Y47581429D01*
X83598572Y47224286D01*
X83670000Y47152857D01*
X83812857Y47081429D01*
X82527143Y47724286D02*
X82455715Y47652857D01*
X82527143Y47581429D01*
X82598572Y47652857D01*
X82527143Y47724286D01*
X82527143Y47581429D01*
X82527143Y48510000D02*
X82455715Y48438571D01*
X82527143Y48367143D01*
X82598572Y48438571D01*
X82527143Y48510000D01*
X82527143Y48367143D01*
X45742857Y9624286D02*
X45814286Y9552857D01*
X46028572Y9481429D01*
X46171429Y9481429D01*
X46385714Y9552857D01*
X46528572Y9695714D01*
X46600000Y9838571D01*
X46671429Y10124286D01*
X46671429Y10338571D01*
X46600000Y10624286D01*
X46528572Y10767143D01*
X46385714Y10910000D01*
X46171429Y10981429D01*
X46028572Y10981429D01*
X45814286Y10910000D01*
X45742857Y10838571D01*
X45100000Y9481429D02*
X45100000Y10481429D01*
X45100000Y10981429D02*
X45171429Y10910000D01*
X45100000Y10838571D01*
X45028572Y10910000D01*
X45100000Y10981429D01*
X45100000Y10838571D01*
X44385714Y9481429D02*
X44385714Y10481429D01*
X44385714Y10195714D02*
X44314286Y10338571D01*
X44242857Y10410000D01*
X44100000Y10481429D01*
X43957143Y10481429D01*
X42814286Y9552857D02*
X42957143Y9481429D01*
X43242857Y9481429D01*
X43385715Y9552857D01*
X43457143Y9624286D01*
X43528572Y9767143D01*
X43528572Y10195714D01*
X43457143Y10338571D01*
X43385715Y10410000D01*
X43242857Y10481429D01*
X42957143Y10481429D01*
X42814286Y10410000D01*
X41528572Y10481429D02*
X41528572Y9481429D01*
X42171429Y10481429D02*
X42171429Y9695714D01*
X42100001Y9552857D01*
X41957143Y9481429D01*
X41742858Y9481429D01*
X41600001Y9552857D01*
X41528572Y9624286D01*
X40814286Y9481429D02*
X40814286Y10481429D01*
X40814286Y10981429D02*
X40885715Y10910000D01*
X40814286Y10838571D01*
X40742858Y10910000D01*
X40814286Y10981429D01*
X40814286Y10838571D01*
X40314286Y10481429D02*
X39742857Y10481429D01*
X40100000Y10981429D02*
X40100000Y9695714D01*
X40028572Y9552857D01*
X39885714Y9481429D01*
X39742857Y9481429D01*
X38100000Y9481429D02*
X38100000Y10981429D01*
X37742857Y10981429D01*
X37528572Y10910000D01*
X37385714Y10767143D01*
X37314286Y10624286D01*
X37242857Y10338571D01*
X37242857Y10124286D01*
X37314286Y9838571D01*
X37385714Y9695714D01*
X37528572Y9552857D01*
X37742857Y9481429D01*
X38100000Y9481429D01*
X36600000Y9481429D02*
X36600000Y10481429D01*
X36600000Y10981429D02*
X36671429Y10910000D01*
X36600000Y10838571D01*
X36528572Y10910000D01*
X36600000Y10981429D01*
X36600000Y10838571D01*
X35242857Y9481429D02*
X35242857Y10267143D01*
X35314286Y10410000D01*
X35457143Y10481429D01*
X35742857Y10481429D01*
X35885714Y10410000D01*
X35242857Y9552857D02*
X35385714Y9481429D01*
X35742857Y9481429D01*
X35885714Y9552857D01*
X35957143Y9695714D01*
X35957143Y9838571D01*
X35885714Y9981429D01*
X35742857Y10052857D01*
X35385714Y10052857D01*
X35242857Y10124286D01*
X33885714Y10481429D02*
X33885714Y9267143D01*
X33957143Y9124286D01*
X34028571Y9052857D01*
X34171428Y8981429D01*
X34385714Y8981429D01*
X34528571Y9052857D01*
X33885714Y9552857D02*
X34028571Y9481429D01*
X34314285Y9481429D01*
X34457143Y9552857D01*
X34528571Y9624286D01*
X34600000Y9767143D01*
X34600000Y10195714D01*
X34528571Y10338571D01*
X34457143Y10410000D01*
X34314285Y10481429D01*
X34028571Y10481429D01*
X33885714Y10410000D01*
X33171428Y9481429D02*
X33171428Y10481429D01*
X33171428Y10195714D02*
X33100000Y10338571D01*
X33028571Y10410000D01*
X32885714Y10481429D01*
X32742857Y10481429D01*
X31600000Y9481429D02*
X31600000Y10267143D01*
X31671429Y10410000D01*
X31814286Y10481429D01*
X32100000Y10481429D01*
X32242857Y10410000D01*
X31600000Y9552857D02*
X31742857Y9481429D01*
X32100000Y9481429D01*
X32242857Y9552857D01*
X32314286Y9695714D01*
X32314286Y9838571D01*
X32242857Y9981429D01*
X32100000Y10052857D01*
X31742857Y10052857D01*
X31600000Y10124286D01*
X30885714Y9481429D02*
X30885714Y10481429D01*
X30885714Y10338571D02*
X30814286Y10410000D01*
X30671428Y10481429D01*
X30457143Y10481429D01*
X30314286Y10410000D01*
X30242857Y10267143D01*
X30242857Y9481429D01*
X30242857Y10267143D02*
X30171428Y10410000D01*
X30028571Y10481429D01*
X29814286Y10481429D01*
X29671428Y10410000D01*
X29600000Y10267143D01*
X29600000Y9481429D01*
D13*
G36*
X25117880Y37153738D02*
X25170577Y36775715D01*
X25182286Y36458576D01*
X25198379Y36023999D01*
X25239849Y35737164D01*
X25279143Y35668857D01*
X25437179Y35733189D01*
X25799123Y35908901D01*
X26313126Y36170066D01*
X26927335Y36490757D01*
X27004697Y36531683D01*
X27625028Y36850250D01*
X28150999Y37101400D01*
X28531467Y37262080D01*
X28715289Y37309239D01*
X28722126Y37305778D01*
X28769994Y37123235D01*
X28802210Y36742535D01*
X28810857Y36370380D01*
X28810857Y35523714D01*
X35863306Y35523714D01*
X37474882Y35523923D01*
X38821073Y35525250D01*
X39926779Y35528748D01*
X40816902Y35535469D01*
X41516341Y35546463D01*
X42049997Y35562783D01*
X42442772Y35585480D01*
X42719565Y35615607D01*
X42905278Y35654215D01*
X43024811Y35702356D01*
X43103064Y35761081D01*
X43164938Y35831442D01*
X43165506Y35832142D01*
X43525838Y36077434D01*
X43971890Y36128696D01*
X44375880Y35977384D01*
X44444817Y35917673D01*
X44631817Y35552163D01*
X44644026Y35101168D01*
X44480566Y34718536D01*
X44171423Y34544395D01*
X43756997Y34528591D01*
X43361908Y34654010D01*
X43110772Y34903538D01*
X43109297Y34906857D01*
X42968216Y35228429D01*
X43320319Y35228429D01*
X43392286Y34930052D01*
X43421905Y34894761D01*
X43698096Y34793571D01*
X44044341Y34853039D01*
X44312431Y35042441D01*
X44339363Y35084959D01*
X44377778Y35407195D01*
X44212681Y35690742D01*
X43927396Y35852275D01*
X43612103Y35812219D01*
X43403832Y35571888D01*
X43320319Y35228429D01*
X42968216Y35228429D01*
X42966022Y35233428D01*
X28810857Y35233428D01*
X28810857Y34362571D01*
X28794541Y33858529D01*
X28736166Y33587625D01*
X28621597Y33494058D01*
X28590243Y33491714D01*
X28371046Y33553862D01*
X27962797Y33720861D01*
X27433940Y33963546D01*
X27102529Y34125678D01*
X26359952Y34495349D01*
X25838682Y34738894D01*
X25499581Y34858385D01*
X25303511Y34855890D01*
X25211331Y34733479D01*
X25183905Y34493221D01*
X25182286Y34227209D01*
X25156506Y33810035D01*
X25090506Y33543505D01*
X25037143Y33491714D01*
X24959832Y33623919D01*
X24907417Y33969284D01*
X24892000Y34362571D01*
X24892000Y35209488D01*
X25545143Y35209488D01*
X26996572Y34498087D01*
X27580827Y34213021D01*
X28059470Y33981945D01*
X28378532Y33830752D01*
X28484286Y33784343D01*
X28504987Y33913569D01*
X28518125Y34246543D01*
X28520572Y34507714D01*
X28520572Y35233428D01*
X27032857Y35221458D01*
X25545143Y35209488D01*
X24892000Y35209488D01*
X24892000Y35233428D01*
X14296572Y35233428D01*
X14296572Y28266571D01*
X15748000Y28266571D01*
X15748000Y20573999D01*
X14296572Y20573999D01*
X14296572Y13752285D01*
X61177715Y13752285D01*
X61177715Y23622000D01*
X59000572Y23622000D01*
X59000572Y24645371D01*
X61286572Y24605399D01*
X63572572Y24565428D01*
X63618054Y24093714D01*
X63663535Y23622000D01*
X61468000Y23622000D01*
X61468000Y13462000D01*
X14006286Y13462000D01*
X14006286Y20573999D01*
X12409715Y20573999D01*
X12409715Y27831142D01*
X12845143Y27831142D01*
X12845143Y21009428D01*
X15312572Y21009428D01*
X15312572Y27831142D01*
X12845143Y27831142D01*
X12409715Y27831142D01*
X12409715Y28266571D01*
X14006286Y28266571D01*
X14006286Y35523714D01*
X24892000Y35523714D01*
X24892000Y35594829D01*
X25908000Y35594829D01*
X26042338Y35563510D01*
X26402175Y35539229D01*
X26922745Y35525511D01*
X27214286Y35523714D01*
X28520572Y35523714D01*
X28520572Y36978056D01*
X27214286Y36322000D01*
X26666487Y36040283D01*
X26231727Y35804148D01*
X25965120Y35644276D01*
X25908000Y35594829D01*
X24892000Y35594829D01*
X24892000Y36475708D01*
X24911913Y37005754D01*
X24968567Y37296344D01*
X25037143Y37338000D01*
X25117880Y37153738D01*
X25117880Y37153738D01*
G37*
X25117880Y37153738D02*
X25170577Y36775715D01*
X25182286Y36458576D01*
X25198379Y36023999D01*
X25239849Y35737164D01*
X25279143Y35668857D01*
X25437179Y35733189D01*
X25799123Y35908901D01*
X26313126Y36170066D01*
X26927335Y36490757D01*
X27004697Y36531683D01*
X27625028Y36850250D01*
X28150999Y37101400D01*
X28531467Y37262080D01*
X28715289Y37309239D01*
X28722126Y37305778D01*
X28769994Y37123235D01*
X28802210Y36742535D01*
X28810857Y36370380D01*
X28810857Y35523714D01*
X35863306Y35523714D01*
X37474882Y35523923D01*
X38821073Y35525250D01*
X39926779Y35528748D01*
X40816902Y35535469D01*
X41516341Y35546463D01*
X42049997Y35562783D01*
X42442772Y35585480D01*
X42719565Y35615607D01*
X42905278Y35654215D01*
X43024811Y35702356D01*
X43103064Y35761081D01*
X43164938Y35831442D01*
X43165506Y35832142D01*
X43525838Y36077434D01*
X43971890Y36128696D01*
X44375880Y35977384D01*
X44444817Y35917673D01*
X44631817Y35552163D01*
X44644026Y35101168D01*
X44480566Y34718536D01*
X44171423Y34544395D01*
X43756997Y34528591D01*
X43361908Y34654010D01*
X43110772Y34903538D01*
X43109297Y34906857D01*
X42968216Y35228429D01*
X43320319Y35228429D01*
X43392286Y34930052D01*
X43421905Y34894761D01*
X43698096Y34793571D01*
X44044341Y34853039D01*
X44312431Y35042441D01*
X44339363Y35084959D01*
X44377778Y35407195D01*
X44212681Y35690742D01*
X43927396Y35852275D01*
X43612103Y35812219D01*
X43403832Y35571888D01*
X43320319Y35228429D01*
X42968216Y35228429D01*
X42966022Y35233428D01*
X28810857Y35233428D01*
X28810857Y34362571D01*
X28794541Y33858529D01*
X28736166Y33587625D01*
X28621597Y33494058D01*
X28590243Y33491714D01*
X28371046Y33553862D01*
X27962797Y33720861D01*
X27433940Y33963546D01*
X27102529Y34125678D01*
X26359952Y34495349D01*
X25838682Y34738894D01*
X25499581Y34858385D01*
X25303511Y34855890D01*
X25211331Y34733479D01*
X25183905Y34493221D01*
X25182286Y34227209D01*
X25156506Y33810035D01*
X25090506Y33543505D01*
X25037143Y33491714D01*
X24959832Y33623919D01*
X24907417Y33969284D01*
X24892000Y34362571D01*
X24892000Y35209488D01*
X25545143Y35209488D01*
X26996572Y34498087D01*
X27580827Y34213021D01*
X28059470Y33981945D01*
X28378532Y33830752D01*
X28484286Y33784343D01*
X28504987Y33913569D01*
X28518125Y34246543D01*
X28520572Y34507714D01*
X28520572Y35233428D01*
X27032857Y35221458D01*
X25545143Y35209488D01*
X24892000Y35209488D01*
X24892000Y35233428D01*
X14296572Y35233428D01*
X14296572Y28266571D01*
X15748000Y28266571D01*
X15748000Y20573999D01*
X14296572Y20573999D01*
X14296572Y13752285D01*
X61177715Y13752285D01*
X61177715Y23622000D01*
X59000572Y23622000D01*
X59000572Y24645371D01*
X61286572Y24605399D01*
X63572572Y24565428D01*
X63618054Y24093714D01*
X63663535Y23622000D01*
X61468000Y23622000D01*
X61468000Y13462000D01*
X14006286Y13462000D01*
X14006286Y20573999D01*
X12409715Y20573999D01*
X12409715Y27831142D01*
X12845143Y27831142D01*
X12845143Y21009428D01*
X15312572Y21009428D01*
X15312572Y27831142D01*
X12845143Y27831142D01*
X12409715Y27831142D01*
X12409715Y28266571D01*
X14006286Y28266571D01*
X14006286Y35523714D01*
X24892000Y35523714D01*
X24892000Y35594829D01*
X25908000Y35594829D01*
X26042338Y35563510D01*
X26402175Y35539229D01*
X26922745Y35525511D01*
X27214286Y35523714D01*
X28520572Y35523714D01*
X28520572Y36978056D01*
X27214286Y36322000D01*
X26666487Y36040283D01*
X26231727Y35804148D01*
X25965120Y35644276D01*
X25908000Y35594829D01*
X24892000Y35594829D01*
X24892000Y36475708D01*
X24911913Y37005754D01*
X24968567Y37296344D01*
X25037143Y37338000D01*
X25117880Y37153738D01*
G36*
X46507119Y24862615D02*
X46628594Y24675263D01*
X46740701Y24333674D01*
X46746195Y24309764D01*
X46851294Y23839714D01*
X47011362Y24309253D01*
X47155931Y24614544D01*
X47299807Y24745610D01*
X47316572Y24744682D01*
X47414825Y24610788D01*
X47404294Y24565428D01*
X47329769Y24339640D01*
X47218574Y23966133D01*
X47193247Y23877373D01*
X47111429Y23502762D01*
X47156638Y23282457D01*
X47323239Y23119989D01*
X47515098Y22959955D01*
X47459120Y22907641D01*
X47275731Y22900901D01*
X46989606Y22967245D01*
X46879008Y23077714D01*
X46598678Y23883252D01*
X46431469Y24441505D01*
X46373548Y24770873D01*
X46421080Y24889754D01*
X46507119Y24862615D01*
X46507119Y24862615D01*
G37*
X46507119Y24862615D02*
X46628594Y24675263D01*
X46740701Y24333674D01*
X46746195Y24309764D01*
X46851294Y23839714D01*
X47011362Y24309253D01*
X47155931Y24614544D01*
X47299807Y24745610D01*
X47316572Y24744682D01*
X47414825Y24610788D01*
X47404294Y24565428D01*
X47329769Y24339640D01*
X47218574Y23966133D01*
X47193247Y23877373D01*
X47111429Y23502762D01*
X47156638Y23282457D01*
X47323239Y23119989D01*
X47515098Y22959955D01*
X47459120Y22907641D01*
X47275731Y22900901D01*
X46989606Y22967245D01*
X46879008Y23077714D01*
X46598678Y23883252D01*
X46431469Y24441505D01*
X46373548Y24770873D01*
X46421080Y24889754D01*
X46507119Y24862615D01*
G36*
X48210136Y24830642D02*
X48318608Y24638990D01*
X48371202Y24248190D01*
X48376810Y24166285D01*
X48375180Y23730776D01*
X48309956Y23499264D01*
X48267953Y23476857D01*
X48167131Y23604503D01*
X48116318Y23918734D01*
X48114857Y23989412D01*
X48052502Y24401009D01*
X47897143Y24585512D01*
X47693783Y24737031D01*
X47740804Y24872187D01*
X48006000Y24902094D01*
X48210136Y24830642D01*
X48210136Y24830642D01*
G37*
X48210136Y24830642D02*
X48318608Y24638990D01*
X48371202Y24248190D01*
X48376810Y24166285D01*
X48375180Y23730776D01*
X48309956Y23499264D01*
X48267953Y23476857D01*
X48167131Y23604503D01*
X48116318Y23918734D01*
X48114857Y23989412D01*
X48052502Y24401009D01*
X47897143Y24585512D01*
X47693783Y24737031D01*
X47740804Y24872187D01*
X48006000Y24902094D01*
X48210136Y24830642D01*
G36*
X49849661Y24829691D02*
X50096885Y24531446D01*
X50146857Y24202571D01*
X50083494Y23848616D01*
X49972686Y23651028D01*
X49717562Y23518133D01*
X49390861Y23479119D01*
X49108337Y23531239D01*
X48985744Y23671748D01*
X48985715Y23674444D01*
X49101877Y23813769D01*
X49331559Y23805918D01*
X49634084Y23812922D01*
X49775553Y23898617D01*
X49732390Y24016422D01*
X49429709Y24057428D01*
X49117296Y24091659D01*
X49000469Y24254603D01*
X48985715Y24492857D01*
X49276000Y24492857D01*
X49397930Y24376071D01*
X49574852Y24347714D01*
X49775543Y24403588D01*
X49784000Y24492857D01*
X49573996Y24626406D01*
X49485149Y24638000D01*
X49297559Y24556847D01*
X49276000Y24492857D01*
X48985715Y24492857D01*
X49022680Y24802093D01*
X49190345Y24915876D01*
X49392115Y24928285D01*
X49849661Y24829691D01*
X49849661Y24829691D01*
G37*
X49849661Y24829691D02*
X50096885Y24531446D01*
X50146857Y24202571D01*
X50083494Y23848616D01*
X49972686Y23651028D01*
X49717562Y23518133D01*
X49390861Y23479119D01*
X49108337Y23531239D01*
X48985744Y23671748D01*
X48985715Y23674444D01*
X49101877Y23813769D01*
X49331559Y23805918D01*
X49634084Y23812922D01*
X49775553Y23898617D01*
X49732390Y24016422D01*
X49429709Y24057428D01*
X49117296Y24091659D01*
X49000469Y24254603D01*
X48985715Y24492857D01*
X49276000Y24492857D01*
X49397930Y24376071D01*
X49574852Y24347714D01*
X49775543Y24403588D01*
X49784000Y24492857D01*
X49573996Y24626406D01*
X49485149Y24638000D01*
X49297559Y24556847D01*
X49276000Y24492857D01*
X48985715Y24492857D01*
X49022680Y24802093D01*
X49190345Y24915876D01*
X49392115Y24928285D01*
X49849661Y24829691D01*
G36*
X50873047Y25417045D02*
X51022767Y25151635D01*
X51044290Y25109714D01*
X51170153Y24805985D01*
X51178909Y24645512D01*
X51160495Y24638000D01*
X51069304Y24509641D01*
X51000312Y24191412D01*
X50990191Y24093714D01*
X50922773Y23716347D01*
X50769239Y23543221D01*
X50618572Y23503048D01*
X50365920Y23524321D01*
X50292000Y23611905D01*
X50409399Y23749568D01*
X50509715Y23767142D01*
X50682559Y23896962D01*
X50727429Y24202571D01*
X50662519Y24548260D01*
X50509715Y24638000D01*
X50316563Y24716372D01*
X50292000Y24783142D01*
X50408824Y24913579D01*
X50499620Y24928285D01*
X50680028Y25051836D01*
X50755034Y25254857D01*
X50798443Y25444106D01*
X50873047Y25417045D01*
X50873047Y25417045D01*
G37*
X50873047Y25417045D02*
X51022767Y25151635D01*
X51044290Y25109714D01*
X51170153Y24805985D01*
X51178909Y24645512D01*
X51160495Y24638000D01*
X51069304Y24509641D01*
X51000312Y24191412D01*
X50990191Y24093714D01*
X50922773Y23716347D01*
X50769239Y23543221D01*
X50618572Y23503048D01*
X50365920Y23524321D01*
X50292000Y23611905D01*
X50409399Y23749568D01*
X50509715Y23767142D01*
X50682559Y23896962D01*
X50727429Y24202571D01*
X50662519Y24548260D01*
X50509715Y24638000D01*
X50316563Y24716372D01*
X50292000Y24783142D01*
X50408824Y24913579D01*
X50499620Y24928285D01*
X50680028Y25051836D01*
X50755034Y25254857D01*
X50798443Y25444106D01*
X50873047Y25417045D01*
G36*
X52045153Y25410234D02*
X52052331Y25403154D01*
X52155595Y25146417D01*
X52197345Y24724112D01*
X52179723Y24253888D01*
X52104873Y23853398D01*
X52020931Y23679167D01*
X51796266Y23517691D01*
X51567424Y23483984D01*
X51453709Y23593324D01*
X51453143Y23606471D01*
X51568650Y23765139D01*
X51670857Y23819630D01*
X51836546Y24012939D01*
X51888572Y24270587D01*
X51813662Y24565834D01*
X51670857Y24638000D01*
X51477706Y24716372D01*
X51453143Y24783142D01*
X51570703Y24911910D01*
X51670857Y24928285D01*
X51847390Y25051784D01*
X51888572Y25247599D01*
X51923336Y25458359D01*
X52045153Y25410234D01*
X52045153Y25410234D01*
G37*
X52045153Y25410234D02*
X52052331Y25403154D01*
X52155595Y25146417D01*
X52197345Y24724112D01*
X52179723Y24253888D01*
X52104873Y23853398D01*
X52020931Y23679167D01*
X51796266Y23517691D01*
X51567424Y23483984D01*
X51453709Y23593324D01*
X51453143Y23606471D01*
X51568650Y23765139D01*
X51670857Y23819630D01*
X51836546Y24012939D01*
X51888572Y24270587D01*
X51813662Y24565834D01*
X51670857Y24638000D01*
X51477706Y24716372D01*
X51453143Y24783142D01*
X51570703Y24911910D01*
X51670857Y24928285D01*
X51847390Y25051784D01*
X51888572Y25247599D01*
X51923336Y25458359D01*
X52045153Y25410234D01*
G36*
X53521484Y24883544D02*
X53702857Y24783142D01*
X53648556Y24677505D01*
X53384852Y24635860D01*
X52977143Y24633720D01*
X53340000Y24450145D01*
X53644380Y24165718D01*
X53702857Y23907999D01*
X53652294Y23651307D01*
X53444145Y23534708D01*
X53231143Y23503946D01*
X52759429Y23458465D01*
X52759429Y23996952D01*
X53049715Y23996952D01*
X53166577Y23797011D01*
X53279524Y23767142D01*
X53448803Y23851534D01*
X53451881Y23939500D01*
X53307414Y24131170D01*
X53133494Y24155540D01*
X53049715Y23996952D01*
X52759429Y23996952D01*
X52759429Y24193375D01*
X52768850Y24626487D01*
X52825920Y24843739D01*
X52973847Y24919524D01*
X53186292Y24928285D01*
X53521484Y24883544D01*
X53521484Y24883544D01*
G37*
X53521484Y24883544D02*
X53702857Y24783142D01*
X53648556Y24677505D01*
X53384852Y24635860D01*
X52977143Y24633720D01*
X53340000Y24450145D01*
X53644380Y24165718D01*
X53702857Y23907999D01*
X53652294Y23651307D01*
X53444145Y23534708D01*
X53231143Y23503946D01*
X52759429Y23458465D01*
X52759429Y23996952D01*
X53049715Y23996952D01*
X53166577Y23797011D01*
X53279524Y23767142D01*
X53448803Y23851534D01*
X53451881Y23939500D01*
X53307414Y24131170D01*
X53133494Y24155540D01*
X53049715Y23996952D01*
X52759429Y23996952D01*
X52759429Y24193375D01*
X52768850Y24626487D01*
X52825920Y24843739D01*
X52973847Y24919524D01*
X53186292Y24928285D01*
X53521484Y24883544D01*
G36*
X55530406Y23476857D02*
X54938648Y23476857D01*
X54525514Y23520286D01*
X54292625Y23633865D01*
X54275507Y23662879D01*
X54255245Y23902958D01*
X54263038Y24036047D01*
X54508441Y24036047D01*
X54597455Y23832442D01*
X54864000Y23767142D01*
X55140209Y23827090D01*
X55225325Y24063131D01*
X55226857Y24130000D01*
X55140602Y24423074D01*
X54922572Y24478303D01*
X54675315Y24318685D01*
X54508441Y24036047D01*
X54263038Y24036047D01*
X54279689Y24320366D01*
X54318347Y24642593D01*
X54376380Y25000857D01*
X54646286Y25000857D01*
X54767291Y24823551D01*
X54936572Y24783142D01*
X55172979Y24873896D01*
X55226857Y25000857D01*
X55105853Y25178162D01*
X54936572Y25218571D01*
X54700165Y25127817D01*
X54646286Y25000857D01*
X54376380Y25000857D01*
X54391741Y25095687D01*
X54480322Y25331906D01*
X54639292Y25421891D01*
X54923852Y25436283D01*
X54938571Y25436285D01*
X55444572Y25436285D01*
X55530406Y23476857D01*
X55530406Y23476857D01*
G37*
X55530406Y23476857D02*
X54938648Y23476857D01*
X54525514Y23520286D01*
X54292625Y23633865D01*
X54275507Y23662879D01*
X54255245Y23902958D01*
X54263038Y24036047D01*
X54508441Y24036047D01*
X54597455Y23832442D01*
X54864000Y23767142D01*
X55140209Y23827090D01*
X55225325Y24063131D01*
X55226857Y24130000D01*
X55140602Y24423074D01*
X54922572Y24478303D01*
X54675315Y24318685D01*
X54508441Y24036047D01*
X54263038Y24036047D01*
X54279689Y24320366D01*
X54318347Y24642593D01*
X54376380Y25000857D01*
X54646286Y25000857D01*
X54767291Y24823551D01*
X54936572Y24783142D01*
X55172979Y24873896D01*
X55226857Y25000857D01*
X55105853Y25178162D01*
X54936572Y25218571D01*
X54700165Y25127817D01*
X54646286Y25000857D01*
X54376380Y25000857D01*
X54391741Y25095687D01*
X54480322Y25331906D01*
X54639292Y25421891D01*
X54923852Y25436283D01*
X54938571Y25436285D01*
X55444572Y25436285D01*
X55530406Y23476857D01*
G36*
X1778000Y25175736D02*
X2024131Y25114474D01*
X2150479Y24960558D01*
X2207551Y24630756D01*
X2221381Y24445057D01*
X2219420Y24015198D01*
X2153252Y23787915D01*
X2112524Y23767142D01*
X2004927Y23893203D01*
X1959437Y24196828D01*
X1959429Y24201341D01*
X1850858Y24630763D01*
X1669143Y24816826D01*
X1415931Y25029463D01*
X1435063Y25160162D01*
X1718558Y25182612D01*
X1778000Y25175736D01*
X1778000Y25175736D01*
G37*
X1778000Y25175736D02*
X2024131Y25114474D01*
X2150479Y24960558D01*
X2207551Y24630756D01*
X2221381Y24445057D01*
X2219420Y24015198D01*
X2153252Y23787915D01*
X2112524Y23767142D01*
X2004927Y23893203D01*
X1959437Y24196828D01*
X1959429Y24201341D01*
X1850858Y24630763D01*
X1669143Y24816826D01*
X1415931Y25029463D01*
X1435063Y25160162D01*
X1718558Y25182612D01*
X1778000Y25175736D01*
G36*
X3414646Y25118668D02*
X3638305Y25007826D01*
X3937318Y24668963D01*
X3968969Y24218212D01*
X3903329Y23996728D01*
X3715653Y23849823D01*
X3375986Y23769133D01*
X3018221Y23770518D01*
X2781905Y23863904D01*
X2715200Y24063337D01*
X2685265Y24415155D01*
X2685240Y24420285D01*
X2975429Y24420285D01*
X3020190Y24142964D01*
X3202686Y24073907D01*
X3302000Y24083619D01*
X3575058Y24227808D01*
X3628572Y24420285D01*
X3509987Y24679845D01*
X3302000Y24756951D01*
X3060147Y24738798D01*
X2979174Y24536242D01*
X2975429Y24420285D01*
X2685240Y24420285D01*
X2685143Y24439369D01*
X2783233Y24887313D01*
X3043435Y25123905D01*
X3414646Y25118668D01*
X3414646Y25118668D01*
G37*
X3414646Y25118668D02*
X3638305Y25007826D01*
X3937318Y24668963D01*
X3968969Y24218212D01*
X3903329Y23996728D01*
X3715653Y23849823D01*
X3375986Y23769133D01*
X3018221Y23770518D01*
X2781905Y23863904D01*
X2715200Y24063337D01*
X2685265Y24415155D01*
X2685240Y24420285D01*
X2975429Y24420285D01*
X3020190Y24142964D01*
X3202686Y24073907D01*
X3302000Y24083619D01*
X3575058Y24227808D01*
X3628572Y24420285D01*
X3509987Y24679845D01*
X3302000Y24756951D01*
X3060147Y24738798D01*
X2979174Y24536242D01*
X2975429Y24420285D01*
X2685240Y24420285D01*
X2685143Y24439369D01*
X2783233Y24887313D01*
X3043435Y25123905D01*
X3414646Y25118668D01*
G36*
X4717618Y25707331D02*
X4867339Y25441921D01*
X4888862Y25400000D01*
X5012594Y25096490D01*
X5016388Y24935904D01*
X4996304Y24928285D01*
X4912374Y24799494D01*
X4865699Y24477767D01*
X4862286Y24347714D01*
X4842481Y23973662D01*
X4749063Y23807409D01*
X4531029Y23767350D01*
X4499429Y23767142D01*
X4226660Y23816827D01*
X4136572Y23912285D01*
X4254131Y24041053D01*
X4354286Y24057428D01*
X4527131Y24187248D01*
X4572000Y24492857D01*
X4507090Y24838546D01*
X4354286Y24928285D01*
X4161134Y25006658D01*
X4136572Y25073428D01*
X4253396Y25203864D01*
X4344191Y25218571D01*
X4524600Y25342121D01*
X4599606Y25545142D01*
X4643014Y25734391D01*
X4717618Y25707331D01*
X4717618Y25707331D01*
G37*
X4717618Y25707331D02*
X4867339Y25441921D01*
X4888862Y25400000D01*
X5012594Y25096490D01*
X5016388Y24935904D01*
X4996304Y24928285D01*
X4912374Y24799494D01*
X4865699Y24477767D01*
X4862286Y24347714D01*
X4842481Y23973662D01*
X4749063Y23807409D01*
X4531029Y23767350D01*
X4499429Y23767142D01*
X4226660Y23816827D01*
X4136572Y23912285D01*
X4254131Y24041053D01*
X4354286Y24057428D01*
X4527131Y24187248D01*
X4572000Y24492857D01*
X4507090Y24838546D01*
X4354286Y24928285D01*
X4161134Y25006658D01*
X4136572Y25073428D01*
X4253396Y25203864D01*
X4344191Y25218571D01*
X4524600Y25342121D01*
X4599606Y25545142D01*
X4643014Y25734391D01*
X4717618Y25707331D01*
G36*
X6107003Y25051046D02*
X6164189Y25004823D01*
X6351532Y24717316D01*
X6309206Y24470616D01*
X6057436Y24349754D01*
X6007900Y24347714D01*
X5780613Y24283871D01*
X5733143Y24202571D01*
X5854324Y24083476D01*
X6014863Y24057428D01*
X6292717Y23990780D01*
X6386286Y23912285D01*
X6324966Y23813521D01*
X6029274Y23768213D01*
X5959423Y23767142D01*
X5612788Y23792560D01*
X5469228Y23910426D01*
X5442857Y24143588D01*
X5540338Y24481122D01*
X5731511Y24595518D01*
X5931468Y24704294D01*
X5944577Y24793305D01*
X5764846Y24857821D01*
X5655924Y24833846D01*
X5472488Y24844888D01*
X5442857Y24917312D01*
X5552419Y25118158D01*
X5809569Y25167075D01*
X6107003Y25051046D01*
X6107003Y25051046D01*
G37*
X6107003Y25051046D02*
X6164189Y25004823D01*
X6351532Y24717316D01*
X6309206Y24470616D01*
X6057436Y24349754D01*
X6007900Y24347714D01*
X5780613Y24283871D01*
X5733143Y24202571D01*
X5854324Y24083476D01*
X6014863Y24057428D01*
X6292717Y23990780D01*
X6386286Y23912285D01*
X6324966Y23813521D01*
X6029274Y23768213D01*
X5959423Y23767142D01*
X5612788Y23792560D01*
X5469228Y23910426D01*
X5442857Y24143588D01*
X5540338Y24481122D01*
X5731511Y24595518D01*
X5931468Y24704294D01*
X5944577Y24793305D01*
X5764846Y24857821D01*
X5655924Y24833846D01*
X5472488Y24844888D01*
X5442857Y24917312D01*
X5552419Y25118158D01*
X5809569Y25167075D01*
X6107003Y25051046D01*
G36*
X7127614Y24958000D02*
X7179108Y24589992D01*
X7184572Y24411719D01*
X7155384Y24025181D01*
X7081637Y23795107D01*
X7039429Y23767142D01*
X6957046Y23897767D01*
X6904454Y24232130D01*
X6894286Y24501423D01*
X6919444Y24938617D01*
X6989365Y25143123D01*
X7039429Y25146000D01*
X7127614Y24958000D01*
X7127614Y24958000D01*
G37*
X7127614Y24958000D02*
X7179108Y24589992D01*
X7184572Y24411719D01*
X7155384Y24025181D01*
X7081637Y23795107D01*
X7039429Y23767142D01*
X6957046Y23897767D01*
X6904454Y24232130D01*
X6894286Y24501423D01*
X6919444Y24938617D01*
X6989365Y25143123D01*
X7039429Y25146000D01*
X7127614Y24958000D01*
G36*
X8429289Y25051046D02*
X8486475Y25004823D01*
X8673817Y24717316D01*
X8631491Y24470616D01*
X8379721Y24349754D01*
X8330186Y24347714D01*
X8102898Y24283871D01*
X8055429Y24202571D01*
X8176610Y24083476D01*
X8337149Y24057428D01*
X8615003Y23990780D01*
X8708572Y23912285D01*
X8647252Y23813521D01*
X8351560Y23768213D01*
X8281709Y23767142D01*
X7935074Y23792560D01*
X7791513Y23910426D01*
X7765143Y24143588D01*
X7862624Y24481122D01*
X8053796Y24595518D01*
X8253754Y24704294D01*
X8266863Y24793305D01*
X8087132Y24857821D01*
X7978209Y24833846D01*
X7794774Y24844888D01*
X7765143Y24917312D01*
X7874705Y25118158D01*
X8131855Y25167075D01*
X8429289Y25051046D01*
X8429289Y25051046D01*
G37*
X8429289Y25051046D02*
X8486475Y25004823D01*
X8673817Y24717316D01*
X8631491Y24470616D01*
X8379721Y24349754D01*
X8330186Y24347714D01*
X8102898Y24283871D01*
X8055429Y24202571D01*
X8176610Y24083476D01*
X8337149Y24057428D01*
X8615003Y23990780D01*
X8708572Y23912285D01*
X8647252Y23813521D01*
X8351560Y23768213D01*
X8281709Y23767142D01*
X7935074Y23792560D01*
X7791513Y23910426D01*
X7765143Y24143588D01*
X7862624Y24481122D01*
X8053796Y24595518D01*
X8253754Y24704294D01*
X8266863Y24793305D01*
X8087132Y24857821D01*
X7978209Y24833846D01*
X7794774Y24844888D01*
X7765143Y24917312D01*
X7874705Y25118158D01*
X8131855Y25167075D01*
X8429289Y25051046D01*
G36*
X9934847Y25105595D02*
X10097830Y24991443D01*
X10349532Y24595899D01*
X10327532Y24108154D01*
X10289615Y23996728D01*
X10120955Y23857497D01*
X9817985Y23777505D01*
X9494261Y23765686D01*
X9263345Y23830978D01*
X9216572Y23912285D01*
X9340516Y24022340D01*
X9570863Y24057428D01*
X9878188Y24110944D01*
X10014858Y24202571D01*
X9958141Y24305365D01*
X9675756Y24347644D01*
X9660566Y24347714D01*
X9344844Y24385596D01*
X9227766Y24545265D01*
X9216572Y24700790D01*
X9245057Y24785510D01*
X9580892Y24785510D01*
X9612426Y24659287D01*
X9716006Y24638000D01*
X9915059Y24671659D01*
X9942286Y24702005D01*
X9835929Y24837483D01*
X9644555Y24840503D01*
X9580892Y24785510D01*
X9245057Y24785510D01*
X9325793Y25025634D01*
X9594632Y25170270D01*
X9934847Y25105595D01*
X9934847Y25105595D01*
G37*
X9934847Y25105595D02*
X10097830Y24991443D01*
X10349532Y24595899D01*
X10327532Y24108154D01*
X10289615Y23996728D01*
X10120955Y23857497D01*
X9817985Y23777505D01*
X9494261Y23765686D01*
X9263345Y23830978D01*
X9216572Y23912285D01*
X9340516Y24022340D01*
X9570863Y24057428D01*
X9878188Y24110944D01*
X10014858Y24202571D01*
X9958141Y24305365D01*
X9675756Y24347644D01*
X9660566Y24347714D01*
X9344844Y24385596D01*
X9227766Y24545265D01*
X9216572Y24700790D01*
X9245057Y24785510D01*
X9580892Y24785510D01*
X9612426Y24659287D01*
X9716006Y24638000D01*
X9915059Y24671659D01*
X9942286Y24702005D01*
X9835929Y24837483D01*
X9644555Y24840503D01*
X9580892Y24785510D01*
X9245057Y24785510D01*
X9325793Y25025634D01*
X9594632Y25170270D01*
X9934847Y25105595D01*
G36*
X12089775Y24746857D02*
X12093020Y24185336D01*
X12047232Y23849778D01*
X11980918Y23767142D01*
X11874362Y23893237D01*
X11829155Y24197063D01*
X11829143Y24202571D01*
X11789468Y24508335D01*
X11693876Y24637967D01*
X11692206Y24638000D01*
X11533563Y24524888D01*
X11325652Y24248026D01*
X11298055Y24202571D01*
X11074042Y23891102D01*
X10897243Y23762945D01*
X10814543Y23849293D01*
X10813143Y23879990D01*
X10888718Y24071937D01*
X11039088Y24315419D01*
X11183667Y24548297D01*
X11147550Y24629686D01*
X11030326Y24638000D01*
X10876121Y24705472D01*
X10829409Y24952122D01*
X10840667Y25182285D01*
X10845522Y25218571D01*
X11103429Y25218571D01*
X11188472Y24990940D01*
X11466286Y24928285D01*
X11750825Y24996320D01*
X11829143Y25218571D01*
X11744100Y25446202D01*
X11466286Y25508857D01*
X11181747Y25440822D01*
X11103429Y25218571D01*
X10845522Y25218571D01*
X10887329Y25531020D01*
X11009494Y25685825D01*
X11297605Y25725387D01*
X11466286Y25726571D01*
X12046858Y25726571D01*
X12089775Y24746857D01*
X12089775Y24746857D01*
G37*
X12089775Y24746857D02*
X12093020Y24185336D01*
X12047232Y23849778D01*
X11980918Y23767142D01*
X11874362Y23893237D01*
X11829155Y24197063D01*
X11829143Y24202571D01*
X11789468Y24508335D01*
X11693876Y24637967D01*
X11692206Y24638000D01*
X11533563Y24524888D01*
X11325652Y24248026D01*
X11298055Y24202571D01*
X11074042Y23891102D01*
X10897243Y23762945D01*
X10814543Y23849293D01*
X10813143Y23879990D01*
X10888718Y24071937D01*
X11039088Y24315419D01*
X11183667Y24548297D01*
X11147550Y24629686D01*
X11030326Y24638000D01*
X10876121Y24705472D01*
X10829409Y24952122D01*
X10840667Y25182285D01*
X10845522Y25218571D01*
X11103429Y25218571D01*
X11188472Y24990940D01*
X11466286Y24928285D01*
X11750825Y24996320D01*
X11829143Y25218571D01*
X11744100Y25446202D01*
X11466286Y25508857D01*
X11181747Y25440822D01*
X11103429Y25218571D01*
X10845522Y25218571D01*
X10887329Y25531020D01*
X11009494Y25685825D01*
X11297605Y25725387D01*
X11466286Y25726571D01*
X12046858Y25726571D01*
X12089775Y24746857D01*
G36*
X49917254Y36086374D02*
X50289156Y35852810D01*
X50305053Y35833923D01*
X50376427Y35754869D01*
X50468849Y35690464D01*
X50611020Y35638964D01*
X50831642Y35598624D01*
X51159415Y35567698D01*
X51623041Y35544442D01*
X52251220Y35527110D01*
X53072654Y35513957D01*
X54116043Y35503239D01*
X55410089Y35493209D01*
X55974395Y35489209D01*
X61395429Y35451142D01*
X61433590Y30412319D01*
X61471751Y25373497D01*
X63028441Y25332319D01*
X63727525Y25308150D01*
X64187148Y25273627D01*
X64458130Y25219405D01*
X64591292Y25136141D01*
X64633779Y25037142D01*
X64631611Y24956663D01*
X64567889Y24895174D01*
X64408972Y24850143D01*
X64121217Y24819035D01*
X63670984Y24799318D01*
X63024629Y24788458D01*
X62148513Y24783921D01*
X61260929Y24783142D01*
X60179229Y24783999D01*
X59353341Y24788519D01*
X58748792Y24799626D01*
X58331109Y24820246D01*
X58065819Y24853303D01*
X57918450Y24901722D01*
X57854527Y24968427D01*
X57839579Y25056344D01*
X57839429Y25073428D01*
X57857131Y25198152D01*
X57942978Y25280936D01*
X58146081Y25330321D01*
X58515550Y25354848D01*
X59100498Y25363058D01*
X59508572Y25363714D01*
X61177715Y25363714D01*
X61177715Y35233428D01*
X50505978Y35233428D01*
X50362704Y34906857D01*
X50114796Y34657961D01*
X49719016Y34528329D01*
X49301576Y34541604D01*
X49048805Y34660725D01*
X48889036Y34951701D01*
X48862030Y35228429D01*
X49126033Y35228429D01*
X49198001Y34930052D01*
X49227619Y34894761D01*
X49503810Y34793571D01*
X49850055Y34853039D01*
X50118145Y35042441D01*
X50145077Y35084959D01*
X50183492Y35407195D01*
X50018395Y35690742D01*
X49733110Y35852275D01*
X49417817Y35812219D01*
X49209547Y35571888D01*
X49126033Y35228429D01*
X48862030Y35228429D01*
X48848630Y35365733D01*
X48926509Y35761758D01*
X49058733Y35959513D01*
X49461783Y36126509D01*
X49917254Y36086374D01*
X49917254Y36086374D01*
G37*
X49917254Y36086374D02*
X50289156Y35852810D01*
X50305053Y35833923D01*
X50376427Y35754869D01*
X50468849Y35690464D01*
X50611020Y35638964D01*
X50831642Y35598624D01*
X51159415Y35567698D01*
X51623041Y35544442D01*
X52251220Y35527110D01*
X53072654Y35513957D01*
X54116043Y35503239D01*
X55410089Y35493209D01*
X55974395Y35489209D01*
X61395429Y35451142D01*
X61433590Y30412319D01*
X61471751Y25373497D01*
X63028441Y25332319D01*
X63727525Y25308150D01*
X64187148Y25273627D01*
X64458130Y25219405D01*
X64591292Y25136141D01*
X64633779Y25037142D01*
X64631611Y24956663D01*
X64567889Y24895174D01*
X64408972Y24850143D01*
X64121217Y24819035D01*
X63670984Y24799318D01*
X63024629Y24788458D01*
X62148513Y24783921D01*
X61260929Y24783142D01*
X60179229Y24783999D01*
X59353341Y24788519D01*
X58748792Y24799626D01*
X58331109Y24820246D01*
X58065819Y24853303D01*
X57918450Y24901722D01*
X57854527Y24968427D01*
X57839579Y25056344D01*
X57839429Y25073428D01*
X57857131Y25198152D01*
X57942978Y25280936D01*
X58146081Y25330321D01*
X58515550Y25354848D01*
X59100498Y25363058D01*
X59508572Y25363714D01*
X61177715Y25363714D01*
X61177715Y35233428D01*
X50505978Y35233428D01*
X50362704Y34906857D01*
X50114796Y34657961D01*
X49719016Y34528329D01*
X49301576Y34541604D01*
X49048805Y34660725D01*
X48889036Y34951701D01*
X48862030Y35228429D01*
X49126033Y35228429D01*
X49198001Y34930052D01*
X49227619Y34894761D01*
X49503810Y34793571D01*
X49850055Y34853039D01*
X50118145Y35042441D01*
X50145077Y35084959D01*
X50183492Y35407195D01*
X50018395Y35690742D01*
X49733110Y35852275D01*
X49417817Y35812219D01*
X49209547Y35571888D01*
X49126033Y35228429D01*
X48862030Y35228429D01*
X48848630Y35365733D01*
X48926509Y35761758D01*
X49058733Y35959513D01*
X49461783Y36126509D01*
X49917254Y36086374D01*
G36*
X7200271Y25621480D02*
X7206343Y25581428D01*
X7093347Y25411243D01*
X7050315Y25391533D01*
X6917968Y25461596D01*
X6894286Y25581428D01*
X6967932Y25762069D01*
X7050315Y25771323D01*
X7200271Y25621480D01*
X7200271Y25621480D01*
G37*
X7200271Y25621480D02*
X7206343Y25581428D01*
X7093347Y25411243D01*
X7050315Y25391533D01*
X6917968Y25461596D01*
X6894286Y25581428D01*
X6967932Y25762069D01*
X7050315Y25771323D01*
X7200271Y25621480D01*
G36*
X59973960Y28430684D02*
X60016572Y28194000D01*
X60076519Y27917791D01*
X60312560Y27832675D01*
X60379429Y27831142D01*
X60671266Y27755439D01*
X60742286Y27613428D01*
X60616113Y27438326D01*
X60379429Y27395714D01*
X60103220Y27335766D01*
X60018104Y27099726D01*
X60016572Y27032857D01*
X59940868Y26741019D01*
X59798857Y26670000D01*
X59623755Y26796173D01*
X59581143Y27032857D01*
X59521196Y27309065D01*
X59285155Y27394181D01*
X59218286Y27395714D01*
X58926449Y27471418D01*
X58855429Y27613428D01*
X58981602Y27788531D01*
X59218286Y27831142D01*
X59494495Y27891090D01*
X59579611Y28127131D01*
X59581143Y28194000D01*
X59656847Y28485837D01*
X59798857Y28556857D01*
X59973960Y28430684D01*
X59973960Y28430684D01*
G37*
X59973960Y28430684D02*
X60016572Y28194000D01*
X60076519Y27917791D01*
X60312560Y27832675D01*
X60379429Y27831142D01*
X60671266Y27755439D01*
X60742286Y27613428D01*
X60616113Y27438326D01*
X60379429Y27395714D01*
X60103220Y27335766D01*
X60018104Y27099726D01*
X60016572Y27032857D01*
X59940868Y26741019D01*
X59798857Y26670000D01*
X59623755Y26796173D01*
X59581143Y27032857D01*
X59521196Y27309065D01*
X59285155Y27394181D01*
X59218286Y27395714D01*
X58926449Y27471418D01*
X58855429Y27613428D01*
X58981602Y27788531D01*
X59218286Y27831142D01*
X59494495Y27891090D01*
X59579611Y28127131D01*
X59581143Y28194000D01*
X59656847Y28485837D01*
X59798857Y28556857D01*
X59973960Y28430684D01*
G36*
X25878346Y32004000D02*
X25921263Y31024285D01*
X25340637Y31024285D01*
X24963515Y31044314D01*
X24777714Y31154642D01*
X24684652Y31430635D01*
X24662795Y31542495D01*
X24645661Y31828564D01*
X24927084Y31828564D01*
X25044644Y31470573D01*
X25297251Y31316637D01*
X25337210Y31314571D01*
X25505949Y31355852D01*
X25590069Y31526667D01*
X25616802Y31897476D01*
X25617715Y32040285D01*
X25601630Y32477099D01*
X25535381Y32694835D01*
X25391969Y32763775D01*
X25338961Y32766000D01*
X25092199Y32645686D01*
X24965288Y32333832D01*
X24927084Y31828564D01*
X24645661Y31828564D01*
X24632918Y32041305D01*
X24696816Y32518275D01*
X24697936Y32522209D01*
X24828827Y32839471D01*
X25045216Y32965051D01*
X25332861Y32983714D01*
X25835429Y32983714D01*
X25878346Y32004000D01*
X25878346Y32004000D01*
G37*
X25878346Y32004000D02*
X25921263Y31024285D01*
X25340637Y31024285D01*
X24963515Y31044314D01*
X24777714Y31154642D01*
X24684652Y31430635D01*
X24662795Y31542495D01*
X24645661Y31828564D01*
X24927084Y31828564D01*
X25044644Y31470573D01*
X25297251Y31316637D01*
X25337210Y31314571D01*
X25505949Y31355852D01*
X25590069Y31526667D01*
X25616802Y31897476D01*
X25617715Y32040285D01*
X25601630Y32477099D01*
X25535381Y32694835D01*
X25391969Y32763775D01*
X25338961Y32766000D01*
X25092199Y32645686D01*
X24965288Y32333832D01*
X24927084Y31828564D01*
X24645661Y31828564D01*
X24632918Y32041305D01*
X24696816Y32518275D01*
X24697936Y32522209D01*
X24828827Y32839471D01*
X25045216Y32965051D01*
X25332861Y32983714D01*
X25835429Y32983714D01*
X25878346Y32004000D01*
G36*
X26887715Y33028761D02*
X27432000Y32983714D01*
X27474918Y32004000D01*
X27517835Y31024285D01*
X26930632Y31024285D01*
X26564634Y31056136D01*
X26359438Y31135805D01*
X26343429Y31169428D01*
X26469553Y31271338D01*
X26773440Y31314560D01*
X26778857Y31314571D01*
X27097578Y31360189D01*
X27209794Y31529923D01*
X27214286Y31604857D01*
X27111655Y31847435D01*
X26924000Y31895142D01*
X26688148Y31955924D01*
X26633715Y32040285D01*
X26755279Y32158211D01*
X26924000Y32185428D01*
X27166579Y32288060D01*
X27214286Y32475714D01*
X27145859Y32688194D01*
X26891258Y32763005D01*
X26778857Y32766000D01*
X26473169Y32810565D01*
X26343464Y32917947D01*
X26343429Y32919904D01*
X26472514Y33012009D01*
X26805604Y33034041D01*
X26887715Y33028761D01*
X26887715Y33028761D01*
G37*
X26887715Y33028761D02*
X27432000Y32983714D01*
X27474918Y32004000D01*
X27517835Y31024285D01*
X26930632Y31024285D01*
X26564634Y31056136D01*
X26359438Y31135805D01*
X26343429Y31169428D01*
X26469553Y31271338D01*
X26773440Y31314560D01*
X26778857Y31314571D01*
X27097578Y31360189D01*
X27209794Y31529923D01*
X27214286Y31604857D01*
X27111655Y31847435D01*
X26924000Y31895142D01*
X26688148Y31955924D01*
X26633715Y32040285D01*
X26755279Y32158211D01*
X26924000Y32185428D01*
X27166579Y32288060D01*
X27214286Y32475714D01*
X27145859Y32688194D01*
X26891258Y32763005D01*
X26778857Y32766000D01*
X26473169Y32810565D01*
X26343464Y32917947D01*
X26343429Y32919904D01*
X26472514Y33012009D01*
X26805604Y33034041D01*
X26887715Y33028761D01*
G36*
X28885769Y32802371D02*
X28938187Y32417512D01*
X28956000Y31959148D01*
X28956000Y31024285D01*
X28375429Y31024285D01*
X28011874Y31056476D01*
X27809662Y31136893D01*
X27794857Y31169428D01*
X27920982Y31271338D01*
X28224869Y31314560D01*
X28230286Y31314571D01*
X28665715Y31314571D01*
X28665715Y32193994D01*
X28687109Y32694338D01*
X28747599Y32957345D01*
X28810857Y32983714D01*
X28885769Y32802371D01*
X28885769Y32802371D01*
G37*
X28885769Y32802371D02*
X28938187Y32417512D01*
X28956000Y31959148D01*
X28956000Y31024285D01*
X28375429Y31024285D01*
X28011874Y31056476D01*
X27809662Y31136893D01*
X27794857Y31169428D01*
X27920982Y31271338D01*
X28224869Y31314560D01*
X28230286Y31314571D01*
X28665715Y31314571D01*
X28665715Y32193994D01*
X28687109Y32694338D01*
X28747599Y32957345D01*
X28810857Y32983714D01*
X28885769Y32802371D01*
G36*
X43486969Y33550066D02*
X43642010Y33456273D01*
X43706562Y33206207D01*
X43732239Y32874857D01*
X43724098Y32433894D01*
X43653702Y32213323D01*
X43557021Y32231327D01*
X43470025Y32506091D01*
X43442762Y32728507D01*
X43353704Y33142174D01*
X43164436Y33315030D01*
X43143715Y33319721D01*
X42978979Y33299330D01*
X42904670Y33111035D01*
X42889715Y32776642D01*
X42856337Y32409199D01*
X42772784Y32202200D01*
X42736619Y32185428D01*
X42648455Y32318611D01*
X42620185Y32679232D01*
X42627762Y32874857D01*
X42664892Y33290218D01*
X42746979Y33492463D01*
X42935463Y33558294D01*
X43180000Y33564285D01*
X43486969Y33550066D01*
X43486969Y33550066D01*
G37*
X43486969Y33550066D02*
X43642010Y33456273D01*
X43706562Y33206207D01*
X43732239Y32874857D01*
X43724098Y32433894D01*
X43653702Y32213323D01*
X43557021Y32231327D01*
X43470025Y32506091D01*
X43442762Y32728507D01*
X43353704Y33142174D01*
X43164436Y33315030D01*
X43143715Y33319721D01*
X42978979Y33299330D01*
X42904670Y33111035D01*
X42889715Y32776642D01*
X42856337Y32409199D01*
X42772784Y32202200D01*
X42736619Y32185428D01*
X42648455Y32318611D01*
X42620185Y32679232D01*
X42627762Y32874857D01*
X42664892Y33290218D01*
X42746979Y33492463D01*
X42935463Y33558294D01*
X43180000Y33564285D01*
X43486969Y33550066D01*
G36*
X45127895Y33509853D02*
X45182972Y33462685D01*
X45322549Y33179382D01*
X45354534Y32803168D01*
X45284736Y32458664D01*
X45127558Y32273528D01*
X44744034Y32191981D01*
X44405772Y32220871D01*
X44292762Y32282190D01*
X44217422Y32505697D01*
X44200838Y32862121D01*
X44511702Y32862121D01*
X44512604Y32571272D01*
X44638383Y32490544D01*
X44729416Y32501251D01*
X44949423Y32674259D01*
X44994286Y32913130D01*
X44921150Y33205290D01*
X44758529Y33274598D01*
X44591607Y33130058D01*
X44511702Y32862121D01*
X44200838Y32862121D01*
X44200152Y32876844D01*
X44242006Y33258637D01*
X44284100Y33407271D01*
X44486625Y33589432D01*
X44812180Y33626356D01*
X45127895Y33509853D01*
X45127895Y33509853D01*
G37*
X45127895Y33509853D02*
X45182972Y33462685D01*
X45322549Y33179382D01*
X45354534Y32803168D01*
X45284736Y32458664D01*
X45127558Y32273528D01*
X44744034Y32191981D01*
X44405772Y32220871D01*
X44292762Y32282190D01*
X44217422Y32505697D01*
X44200838Y32862121D01*
X44511702Y32862121D01*
X44512604Y32571272D01*
X44638383Y32490544D01*
X44729416Y32501251D01*
X44949423Y32674259D01*
X44994286Y32913130D01*
X44921150Y33205290D01*
X44758529Y33274598D01*
X44591607Y33130058D01*
X44511702Y32862121D01*
X44200838Y32862121D01*
X44200152Y32876844D01*
X44242006Y33258637D01*
X44284100Y33407271D01*
X44486625Y33589432D01*
X44812180Y33626356D01*
X45127895Y33509853D01*
G36*
X46230087Y34145752D02*
X46339265Y33902362D01*
X46560749Y33632054D01*
X46833068Y33590325D01*
X47057444Y33767679D01*
X47128402Y33978223D01*
X47173123Y34152275D01*
X47254053Y34108596D01*
X47412773Y33824038D01*
X47415719Y33818285D01*
X47541582Y33514556D01*
X47550338Y33354083D01*
X47531923Y33346571D01*
X47440732Y33218212D01*
X47371740Y32899984D01*
X47361619Y32802285D01*
X47294202Y32424919D01*
X47140668Y32251792D01*
X46990000Y32211619D01*
X46737349Y32232893D01*
X46663429Y32320476D01*
X46780827Y32458140D01*
X46881143Y32475714D01*
X47053988Y32605534D01*
X47098857Y32911142D01*
X47059266Y33222877D01*
X46893330Y33336694D01*
X46744762Y33346571D01*
X46505868Y33304615D01*
X46390814Y33124071D01*
X46345619Y32802285D01*
X46278202Y32424919D01*
X46124668Y32251792D01*
X45974000Y32211619D01*
X45721349Y32232893D01*
X45647429Y32320476D01*
X45764827Y32458140D01*
X45865143Y32475714D01*
X46037988Y32605534D01*
X46082857Y32911142D01*
X46017948Y33256832D01*
X45865143Y33346571D01*
X45671992Y33424944D01*
X45647429Y33491714D01*
X45764253Y33622150D01*
X45855048Y33636857D01*
X46038807Y33760349D01*
X46119423Y33963428D01*
X46167375Y34175930D01*
X46230087Y34145752D01*
X46230087Y34145752D01*
G37*
X46230087Y34145752D02*
X46339265Y33902362D01*
X46560749Y33632054D01*
X46833068Y33590325D01*
X47057444Y33767679D01*
X47128402Y33978223D01*
X47173123Y34152275D01*
X47254053Y34108596D01*
X47412773Y33824038D01*
X47415719Y33818285D01*
X47541582Y33514556D01*
X47550338Y33354083D01*
X47531923Y33346571D01*
X47440732Y33218212D01*
X47371740Y32899984D01*
X47361619Y32802285D01*
X47294202Y32424919D01*
X47140668Y32251792D01*
X46990000Y32211619D01*
X46737349Y32232893D01*
X46663429Y32320476D01*
X46780827Y32458140D01*
X46881143Y32475714D01*
X47053988Y32605534D01*
X47098857Y32911142D01*
X47059266Y33222877D01*
X46893330Y33336694D01*
X46744762Y33346571D01*
X46505868Y33304615D01*
X46390814Y33124071D01*
X46345619Y32802285D01*
X46278202Y32424919D01*
X46124668Y32251792D01*
X45974000Y32211619D01*
X45721349Y32232893D01*
X45647429Y32320476D01*
X45764827Y32458140D01*
X45865143Y32475714D01*
X46037988Y32605534D01*
X46082857Y32911142D01*
X46017948Y33256832D01*
X45865143Y33346571D01*
X45671992Y33424944D01*
X45647429Y33491714D01*
X45764253Y33622150D01*
X45855048Y33636857D01*
X46038807Y33760349D01*
X46119423Y33963428D01*
X46167375Y34175930D01*
X46230087Y34145752D01*
G36*
X48212167Y33371706D02*
X48259203Y33018445D01*
X48260000Y32964505D01*
X48289265Y32620613D01*
X48400873Y32498268D01*
X48514000Y32502564D01*
X48711731Y32656134D01*
X48808582Y33046276D01*
X48813229Y33096817D01*
X48886584Y33454576D01*
X48994304Y33546529D01*
X49090878Y33385950D01*
X49130857Y33004176D01*
X49047160Y32521108D01*
X48781496Y32256466D01*
X48376115Y32185428D01*
X48136429Y32203535D01*
X48016237Y32307399D01*
X47974407Y32571338D01*
X47969715Y32919708D01*
X47994873Y33356902D01*
X48064793Y33561409D01*
X48114857Y33564285D01*
X48212167Y33371706D01*
X48212167Y33371706D01*
G37*
X48212167Y33371706D02*
X48259203Y33018445D01*
X48260000Y32964505D01*
X48289265Y32620613D01*
X48400873Y32498268D01*
X48514000Y32502564D01*
X48711731Y32656134D01*
X48808582Y33046276D01*
X48813229Y33096817D01*
X48886584Y33454576D01*
X48994304Y33546529D01*
X49090878Y33385950D01*
X49130857Y33004176D01*
X49047160Y32521108D01*
X48781496Y32256466D01*
X48376115Y32185428D01*
X48136429Y32203535D01*
X48016237Y32307399D01*
X47974407Y32571338D01*
X47969715Y32919708D01*
X47994873Y33356902D01*
X48064793Y33561409D01*
X48114857Y33564285D01*
X48212167Y33371706D01*
G36*
X50842918Y33165142D02*
X50885835Y32185428D01*
X50294077Y32185428D01*
X49880942Y32228857D01*
X49648054Y32342436D01*
X49630935Y32371450D01*
X49610674Y32611530D01*
X49618467Y32744619D01*
X49863869Y32744619D01*
X49952884Y32541014D01*
X50219429Y32475714D01*
X50495638Y32535661D01*
X50580754Y32771702D01*
X50582286Y32838571D01*
X50496031Y33131645D01*
X50278000Y33186874D01*
X50030743Y33027257D01*
X49863869Y32744619D01*
X49618467Y32744619D01*
X49635117Y33028937D01*
X49673775Y33351164D01*
X49731808Y33709428D01*
X50001715Y33709428D01*
X50122720Y33532123D01*
X50292000Y33491714D01*
X50528408Y33582467D01*
X50582286Y33709428D01*
X50461281Y33886734D01*
X50292000Y33927142D01*
X50055593Y33836389D01*
X50001715Y33709428D01*
X49731808Y33709428D01*
X49747169Y33804258D01*
X49835751Y34040477D01*
X49994721Y34130463D01*
X50279281Y34144854D01*
X50293999Y34144857D01*
X50800000Y34144857D01*
X50842918Y33165142D01*
X50842918Y33165142D01*
G37*
X50842918Y33165142D02*
X50885835Y32185428D01*
X50294077Y32185428D01*
X49880942Y32228857D01*
X49648054Y32342436D01*
X49630935Y32371450D01*
X49610674Y32611530D01*
X49618467Y32744619D01*
X49863869Y32744619D01*
X49952884Y32541014D01*
X50219429Y32475714D01*
X50495638Y32535661D01*
X50580754Y32771702D01*
X50582286Y32838571D01*
X50496031Y33131645D01*
X50278000Y33186874D01*
X50030743Y33027257D01*
X49863869Y32744619D01*
X49618467Y32744619D01*
X49635117Y33028937D01*
X49673775Y33351164D01*
X49731808Y33709428D01*
X50001715Y33709428D01*
X50122720Y33532123D01*
X50292000Y33491714D01*
X50528408Y33582467D01*
X50582286Y33709428D01*
X50461281Y33886734D01*
X50292000Y33927142D01*
X50055593Y33836389D01*
X50001715Y33709428D01*
X49731808Y33709428D01*
X49747169Y33804258D01*
X49835751Y34040477D01*
X49994721Y34130463D01*
X50279281Y34144854D01*
X50293999Y34144857D01*
X50800000Y34144857D01*
X50842918Y33165142D01*
G36*
X21157070Y38831939D02*
X21432541Y38756239D01*
X21481143Y38716857D01*
X21417953Y38619715D01*
X21117093Y38573473D01*
X21021627Y38571714D01*
X20472408Y38571714D01*
X21553715Y37483142D01*
X21973213Y37042109D01*
X22275720Y36686873D01*
X22428607Y36458459D01*
X22419488Y36394571D01*
X22225205Y36491930D01*
X21890885Y36751925D01*
X21476105Y37126432D01*
X21298263Y37300262D01*
X20867501Y37725883D01*
X20600630Y37965890D01*
X20458573Y38042202D01*
X20402255Y37976736D01*
X20392572Y37808262D01*
X20346879Y37519255D01*
X20247429Y37410571D01*
X20164633Y37541108D01*
X20112081Y37874872D01*
X20102286Y38136285D01*
X20102286Y38862000D01*
X20746863Y38862000D01*
X21157070Y38831939D01*
X21157070Y38831939D01*
G37*
X21157070Y38831939D02*
X21432541Y38756239D01*
X21481143Y38716857D01*
X21417953Y38619715D01*
X21117093Y38573473D01*
X21021627Y38571714D01*
X20472408Y38571714D01*
X21553715Y37483142D01*
X21973213Y37042109D01*
X22275720Y36686873D01*
X22428607Y36458459D01*
X22419488Y36394571D01*
X22225205Y36491930D01*
X21890885Y36751925D01*
X21476105Y37126432D01*
X21298263Y37300262D01*
X20867501Y37725883D01*
X20600630Y37965890D01*
X20458573Y38042202D01*
X20402255Y37976736D01*
X20392572Y37808262D01*
X20346879Y37519255D01*
X20247429Y37410571D01*
X20164633Y37541108D01*
X20112081Y37874872D01*
X20102286Y38136285D01*
X20102286Y38862000D01*
X20746863Y38862000D01*
X21157070Y38831939D01*
G36*
X22947625Y38828260D02*
X23195347Y38744461D01*
X23222857Y38716857D01*
X23163988Y38615957D01*
X22875273Y38572118D01*
X22835913Y38571714D01*
X22359265Y38571714D01*
X23440572Y37483142D01*
X23860070Y37042109D01*
X24162577Y36686873D01*
X24315464Y36458459D01*
X24306345Y36394571D01*
X24112062Y36491930D01*
X23777743Y36751925D01*
X23362962Y37126432D01*
X23185120Y37300262D01*
X22754358Y37725883D01*
X22487487Y37965890D01*
X22345431Y38042202D01*
X22289112Y37976736D01*
X22279429Y37808262D01*
X22233736Y37519255D01*
X22134286Y37410571D01*
X22051490Y37541108D01*
X21998938Y37874872D01*
X21989143Y38136285D01*
X21989143Y38862000D01*
X22561149Y38862000D01*
X22947625Y38828260D01*
X22947625Y38828260D01*
G37*
X22947625Y38828260D02*
X23195347Y38744461D01*
X23222857Y38716857D01*
X23163988Y38615957D01*
X22875273Y38572118D01*
X22835913Y38571714D01*
X22359265Y38571714D01*
X23440572Y37483142D01*
X23860070Y37042109D01*
X24162577Y36686873D01*
X24315464Y36458459D01*
X24306345Y36394571D01*
X24112062Y36491930D01*
X23777743Y36751925D01*
X23362962Y37126432D01*
X23185120Y37300262D01*
X22754358Y37725883D01*
X22487487Y37965890D01*
X22345431Y38042202D01*
X22289112Y37976736D01*
X22279429Y37808262D01*
X22233736Y37519255D01*
X22134286Y37410571D01*
X22051490Y37541108D01*
X21998938Y37874872D01*
X21989143Y38136285D01*
X21989143Y38862000D01*
X22561149Y38862000D01*
X22947625Y38828260D01*
G36*
X46808572Y39805428D02*
X46876725Y39627460D01*
X46927706Y39235572D01*
X46952608Y38706012D01*
X46953715Y38563148D01*
X46953715Y37410571D01*
X48686863Y37410571D01*
X49408942Y37398875D01*
X49988256Y37366521D01*
X50373276Y37317613D01*
X50509715Y37265428D01*
X50399170Y37215818D01*
X50003034Y37176351D01*
X49325829Y37147206D01*
X48372081Y37128559D01*
X47146310Y37120590D01*
X46817138Y37120285D01*
X45560194Y37125778D01*
X44543069Y37141955D01*
X43777474Y37168368D01*
X43275118Y37204568D01*
X43047713Y37250104D01*
X43034858Y37265428D01*
X43174592Y37328305D01*
X43572801Y37375063D01*
X44197992Y37403185D01*
X44849143Y37410571D01*
X46663429Y37410571D01*
X46663429Y38652851D01*
X46679037Y39291922D01*
X46724189Y39684363D01*
X46796376Y39810254D01*
X46808572Y39805428D01*
X46808572Y39805428D01*
G37*
X46808572Y39805428D02*
X46876725Y39627460D01*
X46927706Y39235572D01*
X46952608Y38706012D01*
X46953715Y38563148D01*
X46953715Y37410571D01*
X48686863Y37410571D01*
X49408942Y37398875D01*
X49988256Y37366521D01*
X50373276Y37317613D01*
X50509715Y37265428D01*
X50399170Y37215818D01*
X50003034Y37176351D01*
X49325829Y37147206D01*
X48372081Y37128559D01*
X47146310Y37120590D01*
X46817138Y37120285D01*
X45560194Y37125778D01*
X44543069Y37141955D01*
X43777474Y37168368D01*
X43275118Y37204568D01*
X43047713Y37250104D01*
X43034858Y37265428D01*
X43174592Y37328305D01*
X43572801Y37375063D01*
X44197992Y37403185D01*
X44849143Y37410571D01*
X46663429Y37410571D01*
X46663429Y38652851D01*
X46679037Y39291922D01*
X46724189Y39684363D01*
X46796376Y39810254D01*
X46808572Y39805428D01*
D14*
X89290000Y22100000D02*
X96640000Y22100000D01*
X96640000Y22100000D02*
X96640000Y28700000D01*
X96640000Y28700000D02*
X89290000Y28700000D01*
X93980000Y29210000D02*
X93980000Y30480000D01*
X93350000Y29850000D02*
X94610000Y29850000D01*
X89274857Y22051970D02*
G75*
G02X89290000Y28700000I-10534857J3348030D01*
G01*
D13*
G36*
X76179283Y39698651D02*
X78775910Y39633686D01*
X81444755Y39518461D01*
X84072506Y39356025D01*
X86545850Y39149429D01*
X87020076Y39102253D01*
X89328253Y38849336D01*
X91503435Y38579972D01*
X93486531Y38303912D01*
X95218447Y38030907D01*
X96640091Y37770708D01*
X97692369Y37533068D01*
X98316189Y37327737D01*
X98464845Y37213646D01*
X98458239Y37030196D01*
X98241895Y36938658D01*
X97748837Y36942848D01*
X96912084Y37046587D01*
X95664658Y37253691D01*
X94694375Y37428578D01*
X91133713Y38015232D01*
X87362069Y38517386D01*
X83508482Y38924125D01*
X79701990Y39224532D01*
X76071634Y39407692D01*
X72746453Y39462689D01*
X71014167Y39431749D01*
X67177708Y39304266D01*
X69955833Y39561490D01*
X71655932Y39665602D01*
X73768186Y39710306D01*
X76179283Y39698651D01*
X76179283Y39698651D01*
G37*
X76179283Y39698651D02*
X78775910Y39633686D01*
X81444755Y39518461D01*
X84072506Y39356025D01*
X86545850Y39149429D01*
X87020076Y39102253D01*
X89328253Y38849336D01*
X91503435Y38579972D01*
X93486531Y38303912D01*
X95218447Y38030907D01*
X96640091Y37770708D01*
X97692369Y37533068D01*
X98316189Y37327737D01*
X98464845Y37213646D01*
X98458239Y37030196D01*
X98241895Y36938658D01*
X97748837Y36942848D01*
X96912084Y37046587D01*
X95664658Y37253691D01*
X94694375Y37428578D01*
X91133713Y38015232D01*
X87362069Y38517386D01*
X83508482Y38924125D01*
X79701990Y39224532D01*
X76071634Y39407692D01*
X72746453Y39462689D01*
X71014167Y39431749D01*
X67177708Y39304266D01*
X69955833Y39561490D01*
X71655932Y39665602D01*
X73768186Y39710306D01*
X76179283Y39698651D01*
G36*
X67086138Y45064765D02*
X67310000Y45017035D01*
X67219937Y44757862D01*
X66978502Y44119730D01*
X66628822Y43215803D01*
X66423684Y42691419D01*
X65931897Y41285717D01*
X65730101Y40280718D01*
X65820169Y39633273D01*
X66203976Y39300230D01*
X66573870Y39233475D01*
X66934559Y39187978D01*
X66785437Y39101106D01*
X66714687Y39081783D01*
X66322320Y38863838D01*
X66251667Y38715600D01*
X66034778Y38527945D01*
X65534562Y38473736D01*
X64976694Y38541732D01*
X64586851Y38720696D01*
X64533894Y38801146D01*
X64400646Y39169939D01*
X64124582Y39921822D01*
X63747279Y40943883D01*
X63351573Y42012026D01*
X62931412Y43152218D01*
X62588946Y44096432D01*
X62360697Y44742946D01*
X62282916Y44988588D01*
X62512795Y45057164D01*
X63052216Y45085000D01*
X63519730Y45035450D01*
X63808945Y44799625D01*
X64029411Y44246767D01*
X64160569Y43762084D01*
X64386060Y43014952D01*
X64596142Y42535286D01*
X64692922Y42439167D01*
X64877187Y42667861D01*
X65142324Y43254930D01*
X65325625Y43762083D01*
X65616912Y44542490D01*
X65893812Y44937359D01*
X66272836Y45073877D01*
X66537514Y45085000D01*
X67086138Y45064765D01*
X67086138Y45064765D01*
G37*
X67086138Y45064765D02*
X67310000Y45017035D01*
X67219937Y44757862D01*
X66978502Y44119730D01*
X66628822Y43215803D01*
X66423684Y42691419D01*
X65931897Y41285717D01*
X65730101Y40280718D01*
X65820169Y39633273D01*
X66203976Y39300230D01*
X66573870Y39233475D01*
X66934559Y39187978D01*
X66785437Y39101106D01*
X66714687Y39081783D01*
X66322320Y38863838D01*
X66251667Y38715600D01*
X66034778Y38527945D01*
X65534562Y38473736D01*
X64976694Y38541732D01*
X64586851Y38720696D01*
X64533894Y38801146D01*
X64400646Y39169939D01*
X64124582Y39921822D01*
X63747279Y40943883D01*
X63351573Y42012026D01*
X62931412Y43152218D01*
X62588946Y44096432D01*
X62360697Y44742946D01*
X62282916Y44988588D01*
X62512795Y45057164D01*
X63052216Y45085000D01*
X63519730Y45035450D01*
X63808945Y44799625D01*
X64029411Y44246767D01*
X64160569Y43762084D01*
X64386060Y43014952D01*
X64596142Y42535286D01*
X64692922Y42439167D01*
X64877187Y42667861D01*
X65142324Y43254930D01*
X65325625Y43762083D01*
X65616912Y44542490D01*
X65893812Y44937359D01*
X66272836Y45073877D01*
X66537514Y45085000D01*
X67086138Y45064765D01*
G36*
X63941598Y38908550D02*
X63950393Y38821691D01*
X63536199Y38786217D01*
X63473541Y38786580D01*
X63063185Y38824732D01*
X63102356Y38905261D01*
X63147848Y38918354D01*
X63724192Y38957088D01*
X63941598Y38908550D01*
X63941598Y38908550D01*
G37*
X63941598Y38908550D02*
X63950393Y38821691D01*
X63536199Y38786217D01*
X63473541Y38786580D01*
X63063185Y38824732D01*
X63102356Y38905261D01*
X63147848Y38918354D01*
X63724192Y38957088D01*
X63941598Y38908550D01*
G36*
X70916969Y45284236D02*
X71463518Y45078837D01*
X71686064Y44684771D01*
X71702882Y44546632D01*
X71597518Y44296401D01*
X71167796Y44175118D01*
X70405725Y44149757D01*
X69516800Y44088465D01*
X69053921Y43923825D01*
X69044265Y43707475D01*
X69515008Y43491049D01*
X70004836Y43388062D01*
X71127859Y43057075D01*
X71831989Y42508589D01*
X72072500Y41787271D01*
X71853460Y40947913D01*
X71281694Y40400015D01*
X70485231Y40213927D01*
X69625104Y40442514D01*
X69126398Y40633370D01*
X68898889Y40586080D01*
X68897500Y40571393D01*
X68669112Y40390542D01*
X68169896Y40321879D01*
X67442292Y40321257D01*
X67513340Y42064340D01*
X68897500Y42064340D01*
X69097985Y41447645D01*
X69577213Y41146495D01*
X70151846Y41228781D01*
X70461736Y41485094D01*
X70612418Y41875301D01*
X70342942Y42278844D01*
X69748906Y42664748D01*
X69230596Y42665352D01*
X68927369Y42301337D01*
X68897500Y42064340D01*
X67513340Y42064340D01*
X67528556Y42437634D01*
X67636210Y43727851D01*
X67881045Y44578304D01*
X68333998Y45074235D01*
X69066010Y45300886D01*
X69948559Y45345532D01*
X70916969Y45284236D01*
X70916969Y45284236D01*
G37*
X70916969Y45284236D02*
X71463518Y45078837D01*
X71686064Y44684771D01*
X71702882Y44546632D01*
X71597518Y44296401D01*
X71167796Y44175118D01*
X70405725Y44149757D01*
X69516800Y44088465D01*
X69053921Y43923825D01*
X69044265Y43707475D01*
X69515008Y43491049D01*
X70004836Y43388062D01*
X71127859Y43057075D01*
X71831989Y42508589D01*
X72072500Y41787271D01*
X71853460Y40947913D01*
X71281694Y40400015D01*
X70485231Y40213927D01*
X69625104Y40442514D01*
X69126398Y40633370D01*
X68898889Y40586080D01*
X68897500Y40571393D01*
X68669112Y40390542D01*
X68169896Y40321879D01*
X67442292Y40321257D01*
X67513340Y42064340D01*
X68897500Y42064340D01*
X69097985Y41447645D01*
X69577213Y41146495D01*
X70151846Y41228781D01*
X70461736Y41485094D01*
X70612418Y41875301D01*
X70342942Y42278844D01*
X69748906Y42664748D01*
X69230596Y42665352D01*
X68927369Y42301337D01*
X68897500Y42064340D01*
X67513340Y42064340D01*
X67528556Y42437634D01*
X67636210Y43727851D01*
X67881045Y44578304D01*
X68333998Y45074235D01*
X69066010Y45300886D01*
X69948559Y45345532D01*
X70916969Y45284236D01*
G36*
X76376632Y46886489D02*
X76797532Y46818720D01*
X77082238Y46642729D01*
X77299631Y46248683D01*
X77518591Y45526748D01*
X77712355Y44756618D01*
X77968400Y43821089D01*
X78204359Y43142410D01*
X78379055Y42833862D01*
X78412697Y42829983D01*
X78548302Y43131654D01*
X78728066Y43819120D01*
X78917050Y44754951D01*
X78950229Y44944303D01*
X79132396Y45951536D01*
X79291193Y46545316D01*
X79486687Y46834741D01*
X79778944Y46928907D01*
X80047427Y46937083D01*
X80420609Y46915510D01*
X80654956Y46799316D01*
X80750297Y46511292D01*
X80706461Y45974226D01*
X80523275Y45110911D01*
X80200569Y43844134D01*
X80039206Y43232917D01*
X79303357Y40454792D01*
X77467007Y40296688D01*
X76992039Y42311394D01*
X76755157Y43236995D01*
X76548577Y43902973D01*
X76408722Y44195796D01*
X76387330Y44196358D01*
X76262803Y43892734D01*
X76058157Y43217267D01*
X75816470Y42312741D01*
X75803341Y42260705D01*
X75553689Y41316912D01*
X75342604Y40770652D01*
X75085268Y40504875D01*
X74696865Y40402533D01*
X74438400Y40377042D01*
X73527708Y40299292D01*
X72759866Y43287458D01*
X72446035Y44497465D01*
X72172079Y45532876D01*
X71969030Y46277742D01*
X71871662Y46606354D01*
X71997374Y46859014D01*
X72563161Y46937083D01*
X73116317Y46870856D01*
X73425444Y46571961D01*
X73639075Y45944896D01*
X73859994Y44997335D01*
X74057209Y43968118D01*
X74079964Y43828229D01*
X74226406Y43143128D01*
X74386450Y42744749D01*
X74442507Y42703750D01*
X74579207Y42943196D01*
X74780818Y43580656D01*
X75010703Y44494812D01*
X75086406Y44835968D01*
X75544597Y46968185D01*
X76376632Y46886489D01*
X76376632Y46886489D01*
G37*
X76376632Y46886489D02*
X76797532Y46818720D01*
X77082238Y46642729D01*
X77299631Y46248683D01*
X77518591Y45526748D01*
X77712355Y44756618D01*
X77968400Y43821089D01*
X78204359Y43142410D01*
X78379055Y42833862D01*
X78412697Y42829983D01*
X78548302Y43131654D01*
X78728066Y43819120D01*
X78917050Y44754951D01*
X78950229Y44944303D01*
X79132396Y45951536D01*
X79291193Y46545316D01*
X79486687Y46834741D01*
X79778944Y46928907D01*
X80047427Y46937083D01*
X80420609Y46915510D01*
X80654956Y46799316D01*
X80750297Y46511292D01*
X80706461Y45974226D01*
X80523275Y45110911D01*
X80200569Y43844134D01*
X80039206Y43232917D01*
X79303357Y40454792D01*
X77467007Y40296688D01*
X76992039Y42311394D01*
X76755157Y43236995D01*
X76548577Y43902973D01*
X76408722Y44195796D01*
X76387330Y44196358D01*
X76262803Y43892734D01*
X76058157Y43217267D01*
X75816470Y42312741D01*
X75803341Y42260705D01*
X75553689Y41316912D01*
X75342604Y40770652D01*
X75085268Y40504875D01*
X74696865Y40402533D01*
X74438400Y40377042D01*
X73527708Y40299292D01*
X72759866Y43287458D01*
X72446035Y44497465D01*
X72172079Y45532876D01*
X71969030Y46277742D01*
X71871662Y46606354D01*
X71997374Y46859014D01*
X72563161Y46937083D01*
X73116317Y46870856D01*
X73425444Y46571961D01*
X73639075Y45944896D01*
X73859994Y44997335D01*
X74057209Y43968118D01*
X74079964Y43828229D01*
X74226406Y43143128D01*
X74386450Y42744749D01*
X74442507Y42703750D01*
X74579207Y42943196D01*
X74780818Y43580656D01*
X75010703Y44494812D01*
X75086406Y44835968D01*
X75544597Y46968185D01*
X76376632Y46886489D01*
G36*
X86360000Y40322500D02*
X84411306Y40322500D01*
X83290793Y40354447D01*
X82538131Y40472209D01*
X81994661Y40708671D01*
X81765473Y40870870D01*
X81179068Y41607703D01*
X81068333Y42174888D01*
X81140443Y42497005D01*
X82772380Y42497005D01*
X82773402Y41996066D01*
X83156595Y41577690D01*
X83916345Y41382637D01*
X84011147Y41380833D01*
X84520008Y41434437D01*
X84731097Y41700982D01*
X84772500Y42323639D01*
X84736934Y42947344D01*
X84536041Y43188247D01*
X84028528Y43192167D01*
X83939287Y43183535D01*
X83159138Y42939748D01*
X82772380Y42497005D01*
X81140443Y42497005D01*
X81232505Y42908244D01*
X81637364Y43499126D01*
X82151422Y43760904D01*
X82186572Y43762083D01*
X82254892Y43920520D01*
X82035382Y44245938D01*
X81673291Y44942741D01*
X81664954Y45129097D01*
X83185000Y45129097D01*
X83311662Y44557390D01*
X83765874Y44317134D01*
X84155139Y44291250D01*
X84628372Y44412057D01*
X84771211Y44869996D01*
X84772500Y44952709D01*
X84687070Y45425434D01*
X84323920Y45598370D01*
X83978750Y45614167D01*
X83388249Y45523744D01*
X83188382Y45205809D01*
X83185000Y45129097D01*
X81664954Y45129097D01*
X81638479Y45720886D01*
X81934265Y46351077D01*
X82003960Y46415872D01*
X82456748Y46597159D01*
X83270879Y46760310D01*
X84278725Y46872659D01*
X84385210Y46879938D01*
X86360000Y47006672D01*
X86360000Y40322500D01*
X86360000Y40322500D01*
G37*
X86360000Y40322500D02*
X84411306Y40322500D01*
X83290793Y40354447D01*
X82538131Y40472209D01*
X81994661Y40708671D01*
X81765473Y40870870D01*
X81179068Y41607703D01*
X81068333Y42174888D01*
X81140443Y42497005D01*
X82772380Y42497005D01*
X82773402Y41996066D01*
X83156595Y41577690D01*
X83916345Y41382637D01*
X84011147Y41380833D01*
X84520008Y41434437D01*
X84731097Y41700982D01*
X84772500Y42323639D01*
X84736934Y42947344D01*
X84536041Y43188247D01*
X84028528Y43192167D01*
X83939287Y43183535D01*
X83159138Y42939748D01*
X82772380Y42497005D01*
X81140443Y42497005D01*
X81232505Y42908244D01*
X81637364Y43499126D01*
X82151422Y43760904D01*
X82186572Y43762083D01*
X82254892Y43920520D01*
X82035382Y44245938D01*
X81673291Y44942741D01*
X81664954Y45129097D01*
X83185000Y45129097D01*
X83311662Y44557390D01*
X83765874Y44317134D01*
X84155139Y44291250D01*
X84628372Y44412057D01*
X84771211Y44869996D01*
X84772500Y44952709D01*
X84687070Y45425434D01*
X84323920Y45598370D01*
X83978750Y45614167D01*
X83388249Y45523744D01*
X83188382Y45205809D01*
X83185000Y45129097D01*
X81664954Y45129097D01*
X81638479Y45720886D01*
X81934265Y46351077D01*
X82003960Y46415872D01*
X82456748Y46597159D01*
X83270879Y46760310D01*
X84278725Y46872659D01*
X84385210Y46879938D01*
X86360000Y47006672D01*
X86360000Y40322500D01*
G36*
X98001667Y40322500D02*
X97340208Y40322500D01*
X96927291Y40373962D01*
X96734831Y40624138D01*
X96680453Y41216714D01*
X96678750Y41476271D01*
X96678750Y42630042D01*
X95289687Y42792064D01*
X94086804Y43088746D01*
X93328520Y43656578D01*
X92994905Y44513276D01*
X92974583Y44849728D01*
X93001774Y45006144D01*
X94344080Y45006144D01*
X94442695Y44347850D01*
X94968490Y43910426D01*
X95785105Y43762083D01*
X96380971Y43804042D01*
X96627896Y44037154D01*
X96678593Y44622269D01*
X96678750Y44703338D01*
X96678750Y45644593D01*
X95556553Y45563234D01*
X94775556Y45437853D01*
X94405274Y45175956D01*
X94344080Y45006144D01*
X93001774Y45006144D01*
X93117743Y45673229D01*
X93584894Y46228462D01*
X94432547Y46549279D01*
X95717208Y46669532D01*
X96017292Y46672500D01*
X98001667Y46672500D01*
X98001667Y40322500D01*
X98001667Y40322500D01*
G37*
X98001667Y40322500D02*
X97340208Y40322500D01*
X96927291Y40373962D01*
X96734831Y40624138D01*
X96680453Y41216714D01*
X96678750Y41476271D01*
X96678750Y42630042D01*
X95289687Y42792064D01*
X94086804Y43088746D01*
X93328520Y43656578D01*
X92994905Y44513276D01*
X92974583Y44849728D01*
X93001774Y45006144D01*
X94344080Y45006144D01*
X94442695Y44347850D01*
X94968490Y43910426D01*
X95785105Y43762083D01*
X96380971Y43804042D01*
X96627896Y44037154D01*
X96678593Y44622269D01*
X96678750Y44703338D01*
X96678750Y45644593D01*
X95556553Y45563234D01*
X94775556Y45437853D01*
X94405274Y45175956D01*
X94344080Y45006144D01*
X93001774Y45006144D01*
X93117743Y45673229D01*
X93584894Y46228462D01*
X94432547Y46549279D01*
X95717208Y46669532D01*
X96017292Y46672500D01*
X98001667Y46672500D01*
X98001667Y40322500D01*
G36*
X90718189Y46336531D02*
X91721622Y45700069D01*
X92409684Y44744236D01*
X92583994Y44239156D01*
X92599954Y43236836D01*
X92263138Y42175835D01*
X91658961Y41294121D01*
X91464540Y41120387D01*
X90619200Y40725015D01*
X89538049Y40569794D01*
X88439086Y40655947D01*
X87540312Y40984698D01*
X87381499Y41097469D01*
X86976252Y41517652D01*
X86992769Y41834067D01*
X87072162Y41928694D01*
X87403412Y42092720D01*
X87921588Y41980633D01*
X88335772Y41799524D01*
X89362225Y41536559D01*
X90282216Y41688863D01*
X91006533Y42173543D01*
X91445960Y42907705D01*
X91511284Y43808455D01*
X91270191Y44526054D01*
X90621215Y45266310D01*
X89728363Y45622130D01*
X88742980Y45560952D01*
X88034733Y45222154D01*
X87580206Y44972173D01*
X87282518Y45075960D01*
X87159333Y45210564D01*
X86965521Y45656907D01*
X87228993Y46029671D01*
X87982329Y46367271D01*
X88197669Y46434858D01*
X89507499Y46599501D01*
X90718189Y46336531D01*
X90718189Y46336531D01*
G37*
X90718189Y46336531D02*
X91721622Y45700069D01*
X92409684Y44744236D01*
X92583994Y44239156D01*
X92599954Y43236836D01*
X92263138Y42175835D01*
X91658961Y41294121D01*
X91464540Y41120387D01*
X90619200Y40725015D01*
X89538049Y40569794D01*
X88439086Y40655947D01*
X87540312Y40984698D01*
X87381499Y41097469D01*
X86976252Y41517652D01*
X86992769Y41834067D01*
X87072162Y41928694D01*
X87403412Y42092720D01*
X87921588Y41980633D01*
X88335772Y41799524D01*
X89362225Y41536559D01*
X90282216Y41688863D01*
X91006533Y42173543D01*
X91445960Y42907705D01*
X91511284Y43808455D01*
X91270191Y44526054D01*
X90621215Y45266310D01*
X89728363Y45622130D01*
X88742980Y45560952D01*
X88034733Y45222154D01*
X87580206Y44972173D01*
X87282518Y45075960D01*
X87159333Y45210564D01*
X86965521Y45656907D01*
X87228993Y46029671D01*
X87982329Y46367271D01*
X88197669Y46434858D01*
X89507499Y46599501D01*
X90718189Y46336531D01*
M02*
